<?xml version="1.0" encoding="UTF-8" standalone="no"?>
<!-- Created with Inkscape (http://www.inkscape.org/) -->

<svg
   width="100mm"
   height="100mm"
   viewBox="0 0 100 100"
   version="1.1"
   id="svg1"
   xml:space="preserve"
   inkscape:version="1.3 (0e150ed6c4, 2023-07-21)"
   sodipodi:docname="kudo-monster.svg"
   xmlns:inkscape="http://www.inkscape.org/namespaces/inkscape"
   xmlns:sodipodi="http://sodipodi.sourceforge.net/DTD/sodipodi-0.dtd"
   xmlns:xlink="http://www.w3.org/1999/xlink"
   xmlns="http://www.w3.org/2000/svg"
   xmlns:svg="http://www.w3.org/2000/svg"><sodipodi:namedview
     id="namedview1"
     pagecolor="#ffffff"
     bordercolor="#666666"
     borderopacity="1.0"
     inkscape:showpageshadow="2"
     inkscape:pageopacity="0.0"
     inkscape:pagecheckerboard="0"
     inkscape:deskcolor="#d1d1d1"
     inkscape:document-units="mm"
     inkscape:zoom="1.4342733"
     inkscape:cx="191.03751"
     inkscape:cy="186.5056"
     inkscape:window-width="1920"
     inkscape:window-height="1043"
     inkscape:window-x="0"
     inkscape:window-y="0"
     inkscape:window-maximized="1"
     inkscape:current-layer="g313" /><defs
     id="defs1"><linearGradient
       id="linearGradient321"
       inkscape:collect="always"><stop
         style="stop-color:#231e60;stop-opacity:1;"
         offset="0.5609706"
         id="stop321" /><stop
         style="stop-color:#231e60;stop-opacity:0;"
         offset="1"
         id="stop322" /></linearGradient><linearGradient
       inkscape:collect="always"
       xlink:href="#linearGradient321"
       id="linearGradient322"
       x1="51.375"
       y1="89.328011"
       x2="51.8125"
       y2="9.7760706"
       gradientUnits="userSpaceOnUse"
       gradientTransform="matrix(1.1516959,0,0,1.1516959,-7.662002,-7.5215957)" /></defs><g
     inkscape:label="kudomonster"
     inkscape:groupmode="layer"
     id="layer1"><g
       id="g313"><rect
         style="fill:#ffffff;fill-opacity:1;stroke:none;stroke-width:1.00889;stroke-linecap:round;stroke-linejoin:round;stroke-dasharray:none;paint-order:stroke fill markers"
         id="rect1"
         width="81.534767"
         height="74.947113"
         x="9.6534758"
         y="11.394501" /><path
         style="fill:#acdcec;stroke-width:1.1517"
         d="M 24.081615,95.540799 C 13.254291,94.41219 5.3417881,86.382817 4.4472693,75.61645 4.1990316,72.628676 4.2534988,24.150674 4.507131,22.337113 5.8739061,12.564184 12.633738,5.6110737 22.500753,3.8290136 l 1.868786,-0.3375175 h 26.345044 26.345043 l 1.755432,0.3259441 c 9.692389,1.7996569 16.92088,9.7407008 17.748124,19.4976568 0.340408,4.014959 0.116914,52.127214 -0.251388,54.116803 -1.83414,9.908159 -9.430018,17.20614 -18.863788,18.123985 -1.731549,0.168469 -51.74108,0.154332 -53.366391,-0.01509 z M 51.808688,80.558923 c 1.156001,-0.832368 5.408938,-4.847236 5.639965,-5.324252 0.201822,-0.416718 0.203671,-0.525562 0.01653,-0.973458 -1.327437,-3.177004 -0.378463,-6.72259 2.33673,-8.73057 1.38938,-1.027496 1.343251,-1.29822 -0.412596,-2.421421 -2.760474,-1.765853 -6.190284,-1.097109 -7.849804,1.530554 -1.001182,1.585259 -1.128029,1.593919 -2.125123,0.145094 -2.075432,-3.015702 -6.242952,-3.497006 -8.739283,-1.009293 -0.673441,0.671116 -0.68557,1.003323 -0.05095,1.395538 2.820102,1.742919 3.931037,5.113338 2.862742,8.685154 l -0.377756,1.263023 0.419616,0.446789 c 0.880593,0.937618 5.055458,4.651757 5.666423,5.041091 0.909298,0.579447 1.763665,0.563675 2.613511,-0.04825 z M 40.997149,69.128109 c 0,-0.150309 -0.828368,-1.281134 -1.172393,-1.600463 -0.649283,-0.602672 -2.215874,-1.191718 -4.689136,-1.76314 -5.513151,-1.273756 -8.986676,-3.847589 -10.261255,-7.603447 -0.385873,-1.137063 -0.668706,-1.388301 -0.520664,-0.462499 0.447267,2.797054 3.027531,5.623874 6.633195,7.267028 1.123764,0.512116 2.379783,0.885952 5.309251,1.58022 1.937332,0.459138 2.684949,0.836332 3.68835,1.860878 0.71735,0.732467 1.012652,0.942843 1.012652,0.721423 z m 19.944146,-0.793368 c 0.94371,-0.96622 1.417003,-1.191289 3.61472,-1.718936 1.017733,-0.244346 2.25162,-0.544168 2.741973,-0.666272 4.168683,-1.038049 8.080088,-4.363786 9.10546,-7.742069 0.442128,-1.456676 0.135447,-1.471743 -0.38779,-0.01905 -1.454462,4.038097 -4.807191,6.372451 -11.192801,7.793039 -2.482157,0.552198 -3.737602,1.23813 -4.584706,2.504923 -0.564366,0.843979 -0.190533,0.763361 0.703144,-0.151632 z M 33.995279,54.165262 c 0.540487,-0.540487 0.457313,-0.773034 -0.665138,-1.859659 -3.152526,-3.051906 -2.93456,-7.229451 0.492781,-9.444648 3.926965,-2.538119 9.65319,1.109643 8.96334,5.709891 -0.118482,0.790095 0.182304,0.858294 0.708757,0.160704 1.740346,-2.306091 -0.08118,-6.510044 -3.5902,-8.285916 -5.446799,-2.756559 -11.980399,2.773452 -10.51252,8.897754 0.610707,2.547995 3.671016,5.753838 4.60298,4.821874 z m 34.53605,-0.351852 c 1.360791,-0.862988 2.712437,-3.077477 2.99683,-4.909896 0.763039,-4.916459 -2.829134,-9.197806 -7.722897,-9.20457 -4.160287,-0.0058 -8.332563,5.16671 -6.767451,8.389754 0.548501,1.129532 1.090814,1.040906 1.090814,-0.178262 0,-4.470683 5.105795,-7.437804 8.79326,-5.110009 3.506811,2.213753 3.838313,6.62734 0.710382,9.457955 -0.957624,0.866599 -1.033036,1.105879 -0.512562,1.626352 0.451858,0.451859 0.59832,0.444458 1.411624,-0.07132 z m -2.134622,-6.43786 c 1.397319,-0.666336 0.967977,-2.782908 -0.564506,-2.782908 -1.659554,0 -2.062115,1.853474 -0.596647,2.747074 0.547959,0.334129 0.536371,0.333772 1.161153,0.03583 z M 39.392689,47.266737 c 1.080354,-0.558671 0.928596,-2.062952 -0.262295,-2.599969 -0.733712,-0.330858 -1.430115,-0.07787 -1.810511,0.657744 -0.667501,1.290806 0.754997,2.623691 2.072806,1.942225 z M 28.35822,32.601844 c 4.904487,-4.903956 11.963199,-8.505138 16.237978,-8.28422 l 0.935753,0.04836 0.09049,-1.871506 c 0.131178,-2.713043 0.710927,-4.125658 2.312488,-5.63461 1.406841,-1.32549 2.016253,-1.503751 4.507198,-1.318412 1.050833,0.07819 0.794554,-1.241687 -0.332536,-1.712615 -3.127094,-1.306583 -7.784978,3.40708 -7.798817,7.892209 -0.0031,0.99739 -0.04371,1.031963 -1.658062,1.41081 -4.318896,1.013535 -8.478969,3.001071 -11.444977,5.468007 -3.192657,2.655449 -6.099529,5.913997 -5.85175,6.5597 0.12693,0.33077 0.03569,0.408495 3.002236,-2.557723 z m 47.333767,2.594707 c 0,-1.30481 -5.720159,-6.777737 -9.325246,-8.922197 -2.57905,-1.53413 -7.556029,-3.37495 -8.039632,-2.973596 -0.810783,0.672891 -0.633004,0.879319 1.169155,1.357564 0.79179,0.21012 1.601577,0.472338 1.799524,0.582709 0.197948,0.110367 0.716211,0.335526 1.151696,0.500348 3.439105,1.301634 7.885949,4.334314 10.581206,7.216223 0.475075,0.507973 1.177771,1.260612 1.561549,1.672531 0.674975,0.724469 1.101748,0.943876 1.101748,0.566418 z m -52.991081,-6.05517 c 1.279936,-0.719785 4.289983,-1.995208 6.52735,-2.765782 1.04038,-0.358318 1.547592,-0.603598 1.547592,-0.748393 0,-0.23218 -1.534262,-2.342794 -1.69963,-2.338105 -0.05495,0.0016 -0.618158,0.09896 -1.251591,0.216452 -0.633433,0.11749 -1.47561,0.251536 -1.871506,0.297879 -0.624698,0.07312 -2.595853,0.478113 -4.458966,0.91612 -0.860492,0.202297 -0.953916,0.420439 -0.862761,2.014542 0.192168,3.360646 0.251501,3.429664 2.069512,2.407287 z m 57.29457,0.08331 c 0.230115,-0.557119 0.445438,-1.975619 0.446422,-2.940937 0.0014,-1.390932 -0.296916,-1.549251 -4.318025,-2.291475 -2.277327,-0.420353 -4.19571,-0.689715 -4.374916,-0.614285 -0.763248,0.321257 -1.795604,2.49766 -1.185983,2.500278 0.08928,3.83e-4 0.810153,0.295039 1.601944,0.654792 0.791791,0.359751 2.184623,0.946825 3.095183,1.304607 0.910559,0.357783 2.204835,0.905304 2.876168,1.216714 1.449459,0.672359 1.644458,0.690222 1.859207,0.170306 z M 51.943177,21.048963 c 2.391438,-2.4243 6.124217,-3.294112 8.652105,-2.016113 0.825172,0.417174 1.210671,0.417201 1.37073,9.4e-5 0.477239,-1.243664 -3.383807,-2.518091 -5.870855,-1.93781 -2.538288,0.592236 -5.308594,2.881597 -5.308594,4.386986 0,0.553056 0.291433,0.443913 1.156614,-0.433157 z M 28.75281,19.867172 c 0.08246,-0.296922 0.15092,-0.637032 0.152135,-0.755801 0.0091,-0.894629 1.335586,-2.62666 2.826105,-3.690273 1.163406,-0.830187 1.369401,-1.394173 0.751481,-2.057432 -0.857792,-0.920732 -5.774933,1.445059 -8.148982,3.920734 -1.488059,1.551759 -1.303212,1.764825 2.339382,2.696526 2.011254,0.514437 1.903789,0.520314 2.079879,-0.113754 z m 45.643519,0.01812 c 3.75165,-0.868061 3.7035,-0.83591 2.831028,-1.890308 -1.966506,-2.376561 -7.301154,-5.36012 -8.655039,-4.840585 -0.972267,0.373094 -0.675399,1.431702 0.672873,2.39941 1.550072,1.112546 2.430598,2.30793 2.713296,3.683512 0.253936,1.235629 0.08831,1.191607 2.437842,0.647971 z"
         id="path320" /><path
         style="fill:#de6c90;stroke-width:1.1517"
         d="M 24.657463,95.460588 C 13.590629,94.488562 5.4087258,86.36514 4.5979699,75.544469 4.2661306,71.115612 4.4622828,22.997806 4.8198038,21.126839 6.5457571,12.094622 13.076179,5.777792 22.5647,3.9623313 24.450126,3.6015883 73.298156,3.3644395 76.665762,3.69968 c 10.832584,1.0783686 18.905237,9.166692 19.761847,19.800208 0.272963,3.388427 0.09867,51.79657 -0.192569,53.484201 -1.635047,9.474535 -7.785556,16.03644 -17.087966,18.230947 -0.993531,0.234382 -51.999818,0.464236 -54.489611,0.245552 z M 51.802102,80.746547 c 0.905685,-0.583636 5.558449,-4.979082 5.833409,-5.510797 0.213336,-0.412546 0.208747,-0.496639 -0.06846,-1.254421 -1.227092,-3.354494 -0.317888,-6.43317 2.49202,-8.438279 1.391847,-0.993201 1.330853,-1.390798 -0.386182,-2.517411 -3.026738,-1.985958 -6.526564,-1.317673 -8.399186,1.603809 -0.781296,1.218899 -0.883872,1.21782 -1.705408,-0.01794 -2.074211,-3.120059 -6.88416,-3.56061 -9.209865,-0.843547 -0.681563,0.796253 -0.66902,0.842602 0.475079,1.755459 2.77555,2.214567 3.621588,5.010173 2.507281,8.284935 -0.476178,1.399407 -0.509048,1.339035 1.975296,3.627866 4.356113,4.013294 4.935933,4.309222 6.486011,3.310331 z M 41.141111,69.231742 c 0,-0.72837 -1.608019,-2.29527 -2.824415,-2.752193 -0.818181,-0.307339 -1.453697,-0.473953 -4.373685,-1.146654 -2.733872,-0.629823 -5.962181,-2.592131 -7.460722,-4.534952 -0.567785,-0.736119 -1.608883,-2.734701 -1.608883,-3.088551 0,-0.322179 -0.346712,-0.879981 -0.546969,-0.879981 -0.907614,0 0.525989,3.506651 2.140287,5.235226 2.193152,2.348405 4.601543,3.501342 9.787128,4.685261 1.85317,0.423096 2.640746,0.825193 3.659075,1.868134 0.884615,0.905996 1.228184,1.077674 1.228184,0.61371 z M 60.941295,68.62582 c 1.174314,-1.19714 1.719673,-1.411743 5.987475,-2.356127 4.873493,-1.078412 9.914913,-5.707386 9.914913,-9.103759 0,-0.925262 -0.491893,-0.368337 -1.084524,1.227904 -1.417558,3.818169 -5.121251,6.242183 -11.559405,7.565469 -1.904184,0.391382 -3.526592,1.394755 -4.139189,2.559867 -0.543136,1.033002 -0.08266,1.08876 0.88073,0.106646 z M 34.165498,54.31662 c 0.627236,-0.627236 0.48947,-1.067334 -0.651553,-2.081417 -3.353995,-2.980854 -2.86426,-7.744625 0.98314,-9.563217 3.932407,-1.858774 8.651403,1.647342 8.134675,6.043896 -0.113143,0.962668 0.238258,1.063872 0.935733,0.269491 1.868521,-2.128127 0.182832,-6.736312 -3.094062,-8.458271 -6.020879,-3.163883 -12.524598,1.914314 -11.291147,8.816288 0.314259,1.758483 2.177804,4.288638 3.670759,4.983827 0.901291,0.419683 0.882019,0.419838 1.312455,-0.0106 z m 34.400371,-0.229404 c 4.799907,-2.911961 4.18938,-11.100896 -1.021973,-13.707573 -4.86216,-2.432014 -10.90779,0.935661 -10.922868,6.084505 -0.0079,2.719842 1.541592,3.854563 1.679359,1.229773 0.26056,-4.964308 6.138126,-7.337269 9.670431,-3.904262 2.456139,2.387094 2.084975,6.551267 -0.770782,8.647586 -0.865776,0.635538 -0.90567,0.925779 -0.221313,1.610136 0.543103,0.543103 0.749066,0.548273 1.587146,0.03984 z m -1.838511,-6.698421 c 1.344063,-0.869252 0.680032,-2.940115 -0.942761,-2.940115 -0.639353,0 -0.763783,0.05445 -1.16277,0.508877 -1.272884,1.449735 0.484857,3.479385 2.105531,2.431238 z m -26.93949,-0.262422 c 1.503241,-1.50324 -0.727168,-3.73012 -2.280004,-2.276398 -1.077498,1.008724 -0.351016,2.765869 1.143532,2.765869 0.543855,0 0.725033,-0.07803 1.136472,-0.489471 z M 26.353224,34.98318 c 1.497838,-1.806915 4.867034,-4.914369 6.510382,-6.004611 3.751036,-2.488538 8.836943,-4.433089 11.660611,-4.458328 l 1.151696,-0.01025 0.08731,-1.583582 c 0.268817,-4.875644 2.978394,-7.927517 6.325477,-7.124565 0.890229,0.213564 1.145217,0.02763 1.145217,-0.835082 0,-1.147806 -1.433402,-1.723417 -3.167163,-1.271837 -3.216885,0.837876 -5.635375,3.950966 -5.861297,7.544681 -0.04621,0.735021 -0.128191,1.363703 -0.182185,1.397073 -0.05399,0.03336 -0.701667,0.192387 -1.439275,0.353373 -6.345662,1.38496 -12.802914,5.542848 -16.66927,10.733506 -1.166657,1.56626 -0.767108,2.714046 0.438497,1.259667 z m 49.482725,0.234225 c 0,-2.008142 -7.766419,-8.63891 -12.452712,-10.631804 -3.021808,-1.285057 -4.872803,-1.725645 -5.353306,-1.274238 -0.776975,0.729932 -0.459683,1.075417 1.481607,1.61325 4.866057,1.348136 10.307014,4.766037 13.83875,8.693229 1.671153,1.858274 1.723345,1.905195 2.119212,1.905195 0.277552,0 0.366449,-0.07415 0.366449,-0.305632 z M 22.354072,29.617596 c 1.568054,-0.937069 3.767464,-1.904424 6.55027,-2.88097 2.397858,-0.841458 2.414743,-0.876315 1.207485,-2.492636 -0.952618,-1.275399 -0.798167,-1.236329 -3.228055,-0.816567 -0.907754,0.156814 -2.071549,0.357394 -2.586214,0.445734 -3.799731,0.652212 -3.936377,0.749334 -3.816659,2.712706 0.21529,3.530733 0.437189,3.889877 1.873173,3.031733 z m 57.548173,0.039 c 0.444222,-0.499735 0.865115,-3.327498 0.632956,-4.252496 -0.198104,-0.789303 -1.882265,-1.313294 -6.372061,-1.982527 -2.584443,-0.385229 -2.415907,-0.431169 -3.425264,0.933684 -1.042104,1.409134 -1.051149,1.378028 0.599261,2.060665 0.771995,0.319311 1.857109,0.780833 2.411363,1.025605 0.554254,0.244772 1.720346,0.745302 2.591316,1.112288 0.87097,0.366986 1.939887,0.82039 2.375372,1.007565 0.955333,0.410607 0.909938,0.406965 1.187057,0.09522 z M 52.01024,21.267682 c 2.235228,-2.335808 5.860276,-3.247214 8.367267,-2.103691 1.641861,0.748908 2.491902,0.003 1.28922,-1.131253 -2.472125,-2.331513 -8.772345,-1.028896 -10.686424,2.209497 -0.998777,1.689811 -0.285453,2.400026 1.029937,1.025447 z M 28.723982,20.371039 c 0.07855,-0.09898 0.188104,-0.439084 0.243454,-0.755801 0.250113,-1.431148 1.114053,-2.787604 2.357157,-3.700926 1.732422,-1.272831 1.977135,-1.768801 1.298444,-2.631617 -1.225033,-1.557376 -10.272162,3.930272 -9.342723,5.666943 0.332532,0.621343 5.092273,1.864162 5.443668,1.421401 z m 45.214372,-0.159185 c 0.76655,-0.186526 1.888673,-0.449503 2.493605,-0.584394 1.884283,-0.420169 1.947147,-0.661262 0.559278,-2.1449 -2.729742,-2.918101 -7.848792,-5.301903 -8.844457,-4.118622 -0.659096,0.78329 -0.419576,1.313969 1.061447,2.351749 1.527939,1.070656 2.196581,2.016914 2.648768,3.748527 0.317346,1.215255 0.253656,1.192376 2.081359,0.74764 z"
         id="path319" /><path
         style="fill:#04dcf4;stroke-width:1.1517"
         d="M 24.094498,95.399036 C 13.417382,94.252933 5.4008194,86.117095 4.6019386,75.61645 4.391715,72.85323 4.3751144,24.578482 4.5838455,22.998345 5.0443707,19.512052 5.456816,18.043635 6.6720233,15.563874 9.6384486,9.5105581 16.110796,4.8422787 22.713977,3.9933689 c 0.673022,-0.086525 1.657244,-0.2186462 2.187161,-0.2936043 1.408738,-0.1992701 50.165894,-0.1809693 51.854248,0.019464 10.998591,1.305696 18.817249,9.1674504 19.672223,19.7806594 0.272963,3.388428 0.09868,51.796571 -0.192569,53.484201 -1.624576,9.413855 -7.845135,16.050495 -17.087966,18.230947 -1.191547,0.281096 -52.548944,0.452745 -55.052576,0.184 z M 51.719685,80.808235 c 0.791839,-0.464049 5.634872,-5.029179 5.919741,-5.580055 0.210174,-0.406432 0.202982,-0.491963 -0.110897,-1.318832 -1.164944,-3.068826 -0.127745,-6.469377 2.557706,-8.385674 1.362082,-0.971962 1.295046,-1.3771 -0.413336,-2.498035 -3.026738,-1.985958 -6.526564,-1.317673 -8.399187,1.603809 -0.781295,1.218899 -0.883871,1.21782 -1.705407,-0.01794 -2.074211,-3.120059 -6.88416,-3.56061 -9.209865,-0.843547 -0.667461,0.779777 -0.659066,0.82326 0.314799,1.630767 2.893295,2.399056 3.78489,5.187586 2.681137,8.385446 -0.495696,1.436163 -0.530435,1.372411 2.033618,3.732013 4.309138,3.965537 4.771911,4.206147 6.331695,3.292053 z M 41.141111,69.24421 c 0,-1.463015 -2.308315,-2.865081 -5.974423,-3.628852 -3.770607,-0.785542 -6.348234,-2.201286 -8.54663,-4.694179 -0.736617,-0.835294 -2.034576,-3.422281 -2.034576,-4.055153 0,-0.02014 -0.106171,-0.03661 -0.235937,-0.03661 -0.930205,0 0.476494,3.478397 2.117179,5.235226 2.193152,2.348405 4.601543,3.501342 9.787128,4.685261 1.85317,0.423096 2.640746,0.825193 3.659075,1.868134 0.877476,0.898684 1.228184,1.07749 1.228184,0.626178 z m 19.800184,-0.61839 c 1.174314,-1.19714 1.719673,-1.411743 5.987475,-2.356127 4.597957,-1.017442 9.067026,-4.875815 9.803439,-8.463806 0.298013,-1.451989 -0.285428,-1.317908 -0.809118,0.185947 -1.286821,3.695294 -4.595937,6.247496 -9.684455,7.469272 -4.182633,1.004268 -5.082941,1.407724 -5.914591,2.650511 -0.893288,1.334898 -0.505052,1.658319 0.61725,0.514203 z M 52.550098,58.566037 c 0.784134,-0.376936 0.821671,-0.526757 0.321386,-1.282738 -1.119027,-1.690965 -3.923201,-1.649952 -5.15076,0.07533 -0.938294,1.318735 2.703622,2.22926 4.829374,1.207406 z m -18.3846,-4.249417 c 0.627236,-0.627236 0.48947,-1.067334 -0.651553,-2.081417 -2.272401,-2.01959 -2.889882,-4.814078 -1.577393,-7.138694 2.903529,-5.142589 10.400954,-3.135234 10.619465,2.84325 0.06503,1.779007 0.223609,1.942945 1.011476,1.045614 1.868521,-2.128127 0.182832,-6.736312 -3.094062,-8.458271 -6.020879,-3.163883 -12.524598,1.914314 -11.291147,8.816288 0.314259,1.758483 2.177804,4.288638 3.670759,4.983827 0.901291,0.419683 0.882019,0.419838 1.312455,-0.0106 z m 34.400371,-0.229404 c 4.799907,-2.911961 4.18938,-11.100896 -1.021973,-13.707573 -4.86216,-2.432014 -10.90779,0.935661 -10.922868,6.084505 -0.0079,2.719842 1.541592,3.854563 1.679359,1.229773 0.260046,-4.954518 5.990469,-7.314681 9.560985,-3.937836 2.576623,2.436863 2.264549,6.533362 -0.661336,8.68116 -0.865776,0.635538 -0.90567,0.925779 -0.221313,1.610136 0.543103,0.543103 0.749066,0.548273 1.587146,0.03984 z m -1.838511,-6.698421 c 1.344063,-0.869252 0.680032,-2.940115 -0.942761,-2.940115 -0.639353,0 -0.763783,0.05445 -1.16277,0.508877 -1.272884,1.449735 0.484857,3.479385 2.105531,2.431238 z m -26.93949,-0.262422 c 1.503241,-1.50324 -0.727168,-3.73012 -2.280004,-2.276398 -1.077498,1.008724 -0.351016,2.765869 1.143532,2.765869 0.543855,0 0.725033,-0.07803 1.136472,-0.489471 z M 26.353224,34.98318 c 1.497838,-1.806915 4.867034,-4.914369 6.510382,-6.004611 3.751036,-2.488538 8.836943,-4.433089 11.660611,-4.458328 l 1.151696,-0.01025 0.08731,-1.583582 c 0.268817,-4.875644 2.978394,-7.927517 6.325477,-7.124565 0.890229,0.213564 1.145217,0.02763 1.145217,-0.835082 0,-1.607049 -2.616751,-1.909907 -4.883151,-0.565167 -2.501822,1.484423 -3.959964,3.889744 -4.145309,6.838011 -0.04621,0.735021 -0.128191,1.363703 -0.182185,1.397073 -0.05399,0.03336 -0.701667,0.192387 -1.439275,0.353373 -5.280076,1.152392 -10.29064,3.949891 -14.327484,7.999323 -1.537873,1.542669 -3.092993,3.622278 -3.094231,4.137812 -0.0015,0.618553 0.621259,0.543274 1.190942,-0.143962 z m 49.482725,0.232077 c 0,-2.064658 -7.605557,-8.575467 -12.385333,-10.602581 -3.098851,-1.31423 -4.937174,-1.755546 -5.420685,-1.301313 -0.776975,0.729932 -0.459683,1.075417 1.481607,1.61325 4.866057,1.348136 10.307014,4.766037 13.83875,8.693229 1.671153,1.858274 1.723345,1.905195 2.119212,1.905195 0.278354,0 0.366449,-0.07398 0.366449,-0.30778 z M 22.354072,29.617596 c 1.568054,-0.937069 3.767464,-1.904424 6.55027,-2.88097 2.397858,-0.841458 2.414743,-0.876315 1.207485,-2.492636 -0.952618,-1.275399 -0.798167,-1.236329 -3.228055,-0.816567 -0.907754,0.156814 -2.071549,0.357734 -2.586214,0.446489 -3.897998,0.672226 -3.972845,0.730405 -3.837709,2.983049 0.189763,3.163291 0.489485,3.600105 1.894223,2.760635 z m 57.548173,0.039 c 0.444222,-0.499735 0.865115,-3.327498 0.632956,-4.252496 -0.198104,-0.789303 -1.882265,-1.313294 -6.372061,-1.982527 -2.581205,-0.384746 -2.407034,-0.43141 -3.421703,0.916769 -1.060103,1.408546 -1.065253,1.390582 0.5957,2.07758 0.771995,0.319311 1.857109,0.780833 2.411363,1.025605 0.554254,0.244772 1.720346,0.745302 2.591316,1.112288 0.87097,0.366986 1.939887,0.82039 2.375372,1.007565 0.955333,0.410607 0.909938,0.406965 1.187057,0.09522 z M 52.01024,21.267682 c 2.235228,-2.335808 5.860276,-3.247214 8.367267,-2.103691 1.641861,0.748908 2.491902,0.003 1.28922,-1.131253 -2.472125,-2.331513 -8.772345,-1.028896 -10.686424,2.209497 -0.998777,1.689811 -0.285453,2.400026 1.029937,1.025447 z M 28.726475,20.371039 c 0.07993,-0.09898 0.189568,-0.448442 0.243658,-0.776595 0.245083,-1.486882 1.207122,-2.768852 3.366579,-4.486146 1.143694,-0.909517 0.633841,-2.290646 -0.791309,-2.143559 -2.817989,0.290843 -8.939968,4.723877 -8.265089,5.984899 0.332832,0.621903 5.089322,1.863305 5.446161,1.421401 z m 45.211879,-0.159185 c 0.76655,-0.186526 1.888673,-0.449503 2.493605,-0.584394 1.871299,-0.417273 1.94258,-0.673455 0.592215,-2.128404 -1.850947,-1.9943 -6.375291,-4.57805 -8.016516,-4.57805 -1.389532,0 -1.569134,1.66743 -0.265328,2.463305 1.559641,0.952041 2.681824,2.422375 3.115089,4.081527 0.316876,1.213452 0.253427,1.190705 2.080935,0.746016 z"
         id="path318" /><path
         style="fill:#509fd0;stroke-width:1.1517"
         d="M 24.094498,95.399036 C 13.417382,94.252933 5.4008194,86.117095 4.6019386,75.61645 4.391715,72.85323 4.3751144,24.578482 4.5838455,22.998345 5.0443707,19.512052 5.456816,18.043635 6.6720233,15.563874 9.6384486,9.5105581 16.110796,4.8422787 22.713977,3.9933689 c 0.673022,-0.086525 1.657244,-0.2186462 2.187161,-0.2936043 1.408738,-0.1992701 50.165894,-0.1809693 51.854248,0.019464 10.998591,1.305696 18.817249,9.1674504 19.672223,19.7806594 0.272963,3.388428 0.09868,51.796571 -0.192569,53.484201 -1.624576,9.413855 -7.845135,16.050495 -17.087966,18.230947 -1.191547,0.281096 -52.548944,0.452745 -55.052576,0.184 z M 51.719685,80.808235 c 0.791839,-0.464049 5.634872,-5.029179 5.919741,-5.580055 0.210174,-0.406432 0.202982,-0.491963 -0.110897,-1.318832 -1.164944,-3.068826 -0.127745,-6.469377 2.557706,-8.385674 0.490912,-0.350309 0.931042,-0.737185 0.978066,-0.859726 0.04702,-0.122541 0.146026,-0.185392 0.220006,-0.13967 0.07399,0.04572 0.44694,-0.03882 0.828798,-0.187871 0.381859,-0.149052 1.374509,-0.413411 2.20589,-0.587464 6.31672,-1.322437 9.643619,-4.203524 9.64599,-8.353407 0.001,-1.817885 1.421552,-2.772729 2.248157,-1.511171 0.358146,0.546599 0.497955,2.868685 0.184506,3.064438 -0.128261,0.0801 -0.275868,0.358971 -0.328017,0.619715 -0.692924,3.464623 -4.662685,6.651655 -9.830991,7.892588 -4.182632,1.004268 -5.082941,1.407724 -5.91459,2.650511 -0.551241,0.823754 -0.62181,1.316322 -0.171725,1.198622 0.240096,-0.06279 0.264707,-0.03956 0.130019,0.122731 -0.128856,0.155263 -0.102051,0.281643 0.119478,0.56327 0.157086,0.1997 0.328931,0.59401 0.381877,0.876242 0.334993,1.785663 2.86653,2.574608 6.486516,2.021502 7.528254,-1.15026 12.60911,-5.98717 13.169826,-12.537504 0.08133,-0.950149 0.244009,-2.08385 0.361503,-2.519335 0.364001,-1.349159 0.302023,-1.675161 -0.57475,-3.023202 -0.718878,-1.105276 -0.791588,-1.290583 -0.789586,-2.012319 0.0013,-0.437217 -0.137661,-1.910786 -0.308608,-3.274599 -0.333801,-2.663003 -0.301888,-2.918915 0.363974,-2.918915 0.522551,0 0.869769,0.357354 2.023604,2.082682 1.269782,1.898699 1.805794,2.118077 1.805794,0.739072 0,-1.82779 -6.066164,-13.352939 -7.271694,-13.815544 -0.117881,-0.04523 -0.214329,-0.222781 -0.214329,-0.394545 0,-0.877272 -3.552106,-4.847203 -6.055454,-6.767742 -3.389638,-2.600491 -5.694995,-3.808078 -9.494208,-4.97324 l -1.801293,-0.552429 0.45531,-0.397554 c 0.25042,-0.218654 0.932549,-0.615038 1.515842,-0.880853 1.521071,-0.693174 1.991338,-1.12524 1.991338,-1.829573 0,-0.309678 -0.06478,-0.563051 -0.143962,-0.563051 -0.07918,0 -0.143962,-0.170504 -0.143962,-0.378896 0,-1.36304 -3.481265,-2.471959 -6.071915,-1.934142 -1.51618,0.314757 -3.333296,1.374741 -4.699831,2.741567 l -0.478462,0.478565 0.102201,-0.561518 c 0.117176,-0.643821 0.629429,-1.721003 1.246364,-2.620895 0.233686,-0.340866 0.388961,-0.713368 0.345056,-0.827781 -0.04672,-0.121769 0.0058,-0.208025 0.126534,-0.208025 0.629555,0 0.675288,-1.308443 0.06565,-1.877939 -1.232841,-1.151647 -3.876451,-0.45047 -6.113475,1.621504 -1.465932,1.357775 -2.335053,3.306386 -2.476212,5.551788 -0.04621,0.735021 -0.128191,1.363703 -0.182185,1.397073 -0.05399,0.03336 -0.701667,0.192387 -1.439275,0.353373 -5.280075,1.152392 -10.29064,3.949891 -14.327484,7.999323 -1.537873,1.542669 -3.092993,3.622278 -3.094231,4.137812 -5.23e-4,0.217742 -0.0632,0.395895 -0.139306,0.395895 -1.087797,0 -7.190164,11.391437 -7.451588,13.910066 -0.118862,1.145139 0.760489,1.881374 0.977831,0.818689 0.175022,-0.855811 2.246646,-3.643682 2.707554,-3.643682 0.630845,0 0.810787,1.600498 0.380359,3.383107 -0.114709,0.475074 -0.210873,1.510739 -0.213694,2.301476 l -0.0052,1.437706 -0.68382,0.993408 -0.683819,0.993407 0.01256,1.38388 c 0.02128,2.344301 0.714048,6.25551 1.214875,6.85897 0.07796,0.09393 0.233113,0.474377 0.34478,0.845421 0.222613,0.739686 0.685152,1.433333 1.545167,2.317208 0.308166,0.316716 0.866523,0.924619 1.240792,1.350894 1.608766,1.83231 4.806827,3.515141 7.806608,4.107863 4.98609,0.985194 6.84917,0.559135 8.065306,-1.84442 0.582122,-1.150498 0.635712,-1.238964 0.750513,-1.238964 0.253494,0 0.076,-0.55793 -0.404446,-1.271357 -0.854304,-1.268649 -2.273831,-1.947547 -5.460098,-2.611351 -3.770607,-0.785542 -6.348234,-2.201286 -8.54663,-4.694179 -0.736617,-0.835294 -2.034576,-3.422281 -2.034576,-4.055153 0,-0.02014 -0.100393,-0.03661 -0.223096,-0.03661 -0.163952,0 -0.188282,-0.06222 -0.09178,-0.234659 0.07222,-0.129063 0.09988,-0.513713 0.06143,-0.854778 -0.207804,-1.843635 0.901912,-2.945936 1.983005,-1.969755 0.390457,0.352566 0.452979,0.525351 0.57126,1.578716 0.515858,4.594059 3.399741,7.063029 9.720006,8.321559 0.950149,0.189199 2.00977,0.443662 2.354712,0.565472 0.344942,0.121812 0.685051,0.185701 0.7558,0.141975 0.07075,-0.04373 0.128633,0.01362 0.128633,0.127453 0,0.113822 0.372501,0.515821 0.827781,0.893329 2.893295,2.399056 3.784891,5.187586 2.681138,8.385446 -0.495697,1.436163 -0.530435,1.372411 2.033617,3.732013 4.309138,3.965537 4.771912,4.206147 6.331696,3.292053 z M 28.292108,69.083005 c -0.826913,-0.545 -1.545706,-1.100952 -1.597318,-1.235451 -0.541392,-1.410845 0.917399,-2.168952 1.980514,-1.029237 0.323918,0.347258 0.815683,0.743351 1.09281,0.880207 1.266705,0.625549 1.651825,1.498483 0.916339,2.077016 -0.563563,0.443298 -0.751537,0.388884 -2.392345,-0.692535 z M 70.0278,69.666682 c -0.527451,-0.582828 -0.165689,-1.278541 0.959454,-1.845139 0.410177,-0.206558 1.019658,-0.626452 1.3544,-0.9331 0.692557,-0.634432 1.404237,-0.749729 1.81642,-0.294271 0.546885,0.604301 0.262583,1.228488 -0.951328,2.088646 -1.735914,1.230039 -2.689165,1.525065 -3.178946,0.983864 z m -21.139986,-10.5923 c -1.539295,-0.445112 -3.283882,-2.232946 -3.283882,-3.365287 0,-0.147407 -0.192546,-0.522489 -0.427881,-0.833516 -1.354686,-1.790401 0.782874,-3.180435 2.223897,-1.446178 l 0.492527,0.592751 h 2.527111 2.527111 l 0.66456,-0.683819 c 1.487839,-1.530959 3.416545,-0.275903 2.141995,1.393848 -0.277127,0.363056 -0.503867,0.758869 -0.503867,0.879585 0,2.17004 -3.757943,4.215497 -6.361571,3.462616 z m 3.662284,-0.508345 c 0.784134,-0.376936 0.821671,-0.526757 0.321386,-1.282738 -1.119027,-1.690965 -3.923201,-1.649952 -5.15076,0.07533 -0.938294,1.318735 2.703622,2.22926 4.829374,1.207406 z M 33.702222,57.060012 c -3.057616,-1.13633 -6.149665,-5.413562 -4.79788,-6.636909 0.158358,-0.143313 0.290767,-0.363897 0.294243,-0.490188 0.0035,-0.126293 0.09091,0.0073 0.194318,0.296676 0.687038,1.923354 3.627117,4.849876 4.395349,4.375082 0.06853,-0.04235 0.157016,0.0075 0.196647,0.110782 0.07266,0.189347 1.311417,0.593161 2.283029,0.744232 0.997915,0.155158 1.067384,0.727904 0.182521,1.504824 -0.627717,0.551142 -1.445715,0.579569 -2.748227,0.0955 z M 64.913949,56.89299 c -0.762148,-0.968914 -0.633939,-1.218717 0.836223,-1.629306 1.349577,-0.376911 1.612375,-0.60167 1.222492,-1.045538 l -0.278301,-0.316836 0.446149,0.323365 c 0.965241,0.699596 3.477047,-1.541186 4.261374,-3.801572 0.137371,-0.395896 0.251881,-0.589632 0.254465,-0.430525 0.0025,0.159107 0.134266,0.3702 0.292624,0.469096 1.226131,0.765732 -1.362191,4.978799 -3.827519,6.230134 -1.376732,0.698792 -2.748412,0.784826 -3.207507,0.201182 z M 35.670555,53.446468 c -0.550661,-0.133038 -0.846593,-0.145862 -0.971743,-0.04211 -0.130073,0.107833 -0.179953,0.09025 -0.179953,-0.06342 0,-0.116936 -0.452212,-0.614513 -1.004914,-1.105727 -2.272401,-2.01959 -2.889882,-4.814078 -1.577393,-7.138694 2.914789,-5.162532 10.33902,-3.153069 10.63774,2.87924 l 0.07842,1.583582 -0.503867,0.855233 c -1.498807,2.543987 -3.881734,3.65922 -6.478289,3.031904 z m 4.117313,-6.320095 c 1.503241,-1.50324 -0.727168,-3.73012 -2.280004,-2.276398 -1.077498,1.008724 -0.351016,2.765869 1.143532,2.765869 0.543855,0 0.725033,-0.07803 1.136472,-0.489471 z m 22.94754,6.335405 c -1.775712,-0.395468 -3.319009,-1.616125 -4.068645,-3.218061 -0.231643,-0.49501 -0.483025,-0.938249 -0.558626,-0.984972 -0.08482,-0.05242 -0.08635,-0.148945 -0.004,-0.252088 0.07341,-0.09193 0.162906,-0.69962 0.198873,-1.350436 0.272178,-4.925161 6.002327,-7.263263 9.558337,-3.900136 2.576624,2.436863 2.26455,6.533362 -0.661336,8.68116 -0.396888,0.291343 -0.721616,0.625195 -0.721616,0.741893 0,0.116697 -0.05608,0.177524 -0.124603,0.135169 -0.06854,-0.04236 -0.570598,0.01748 -1.115705,0.132966 -1.167301,0.247305 -1.450038,0.248943 -2.502703,0.0145 z m 3.99195,-6.072983 c 1.344063,-0.869252 0.680032,-2.940115 -0.942761,-2.940115 -0.639353,0 -0.763783,0.05445 -1.16277,0.508877 -1.272884,1.449735 0.484857,3.479385 2.105531,2.431238 z M 59.352302,36.97136 c -0.738654,-0.180927 -2.643542,-1.123153 -3.203039,-1.584338 -0.656656,-0.54127 -1.167614,-0.561926 -1.630584,-0.06592 -1.716506,1.838999 -4.905747,0.575923 -6.386382,-2.529284 -1.00027,-2.097775 -0.544933,-3.561743 0.548142,-1.762348 2.030928,3.343267 5.273288,3.93915 5.273288,0.969126 0,-0.967163 0.251946,-0.961355 1.471126,0.03392 1.487594,1.214392 2.323671,1.752611 3.56348,2.293968 5.271186,2.301639 4.492048,-5.057662 -0.823718,-7.780388 -1.474445,-0.755207 -1.656891,-1.079977 -1.044242,-1.858832 0.158072,-0.200957 0.348314,-0.517412 0.422759,-0.703233 l 0.135356,-0.337858 0.0091,0.33126 c 0.0106,0.384364 0.419997,0.588497 1.941996,0.968286 1.037884,0.258985 2.634497,0.928006 2.220533,0.930458 -0.170181,0.001 -0.260637,0.17472 -0.319339,0.613245 -0.04504,0.336511 -0.119774,0.87097 -0.166063,1.187686 -0.07737,0.529355 -0.02999,0.639775 0.58678,1.367639 3.656109,4.314633 2.094694,9.076347 -2.599219,7.926612 z M 26.779741,29.535744 c 0.553075,-0.521745 1.581284,-1.403358 2.284907,-1.959142 0.703622,-0.555784 1.279314,-1.093091 1.279314,-1.194014 0,-0.100923 0.129566,-0.217381 0.287924,-0.258793 0.681859,-0.17831 -0.839113,-2.95347 -1.643207,-2.998188 -0.261773,-0.01456 -0.26626,-0.02548 -0.03499,-0.08511 0.194156,-0.05006 0.241309,-0.151744 0.175854,-0.379196 -0.04919,-0.170932 -0.162509,-0.656818 -0.251818,-1.079746 -0.08931,-0.422927 -0.252341,-0.803481 -0.362294,-0.845673 -0.155323,-0.0596 -0.138013,-0.120071 0.0776,-0.271093 0.165774,-0.116114 0.315272,-0.446167 0.371288,-0.819709 0.22545,-1.503409 1.190473,-2.801627 3.37239,-4.536784 1.143694,-0.909516 0.633841,-2.290645 -0.791309,-2.143558 -2.012039,0.207661 -6.274848,2.796805 -7.839919,4.761809 -0.651051,0.817417 -0.681073,1.010506 -0.220856,1.420432 0.321242,0.286138 0.329317,0.335842 0.156111,0.96085 -0.531659,1.918485 -0.685087,3.749659 -0.314924,3.758664 0.375342,0.0091 -0.279221,0.244974 -1.376749,0.496049 -1.533864,0.350896 -1.610142,0.47866 -1.489217,2.494418 0.204848,3.414765 0.399244,3.612716 2.424462,2.468809 1.086144,-0.613487 1.583841,-0.805809 1.524835,-0.589232 -0.04039,0.148261 1.133768,1.747831 1.282991,1.747831 0.04511,0 0.534528,-0.426881 1.087604,-0.948624 z m 49.239127,0.291828 c 0.255701,-0.361237 0.497301,-0.782451 0.536891,-0.93603 0.0683,-0.264948 0.119864,-0.256346 1.007733,0.168096 2.523524,1.20636 2.785398,1.008389 2.983206,-2.255248 0.112797,-1.861021 -0.239121,-2.254165 -2.386621,-2.666208 -0.673836,-0.12929 -0.854077,-0.209669 -0.68382,-0.30495 0.608506,-0.340537 0.01456,-3.87845 -0.695198,-4.141005 -0.237124,-0.08771 -0.199241,-0.121815 0.223438,-0.20111 1.241898,-0.232982 1.24622,-0.670524 0.01967,-1.992061 -1.850941,-1.9943 -6.375285,-4.57805 -8.01651,-4.57805 -1.389532,0 -1.569134,1.66743 -0.265328,2.463305 1.563958,0.954676 2.681722,2.421983 3.118149,4.093245 0.12271,0.469906 0.286653,0.875558 0.36432,0.901447 0.08648,0.02883 0.09277,0.168913 0.0162,0.361463 -0.299316,0.75276 -0.485422,2.138355 -0.302406,2.251464 0.127433,0.07875 0.09911,0.131238 -0.09872,0.182974 -0.587976,0.153759 -2.250111,2.702681 -1.762406,2.702681 0.07918,0 0.143962,0.0918 0.143962,0.203994 0,0.112198 0.562303,0.643071 1.249562,1.179721 0.687258,0.53665 1.78638,1.481379 2.442493,2.099398 1.393536,1.312625 1.491364,1.33432 2.105382,0.466874 z"
         id="path317" /><path
         style="fill:#566496;stroke-width:1.1517"
         d="M 25.017368,95.466032 C 24.819421,95.436314 24.074417,95.34004 23.361806,95.252092 13.496463,94.034537 5.6465705,86.07279 4.7117229,76.33626 4.4332405,73.435834 4.6080138,22.187076 4.901231,20.766934 6.6032221,12.523661 13.142562,5.9998482 21.497707,4.2098641 c 2.270997,-0.4865318 4.351597,-0.518744 30.512533,-0.4724 l 25.913157,0.045905 1.511601,0.33236 c 8.909403,1.9589368 15.909562,9.6027159 16.848869,18.3980149 0.10242,0.958977 0.136204,9.978074 0.104021,27.765397 l -0.04767,26.345043 -0.327521,1.43962 c -2.043339,8.981485 -8.048148,15.074312 -16.842796,17.08967 l -1.390467,0.318637 -26.201081,0.02398 c -14.410594,0.01319 -26.363038,-3.38e-4 -26.560986,-0.03006 z m 6.190366,-11.075373 c 0.168085,-3.715324 2.559367,-3.656483 2.735277,0.06731 l 0.07198,1.523749 h 3.239145 3.239145 l 0.08619,-1.516352 c 0.09245,-1.626509 0.203333,-1.965176 0.796089,-2.431438 1.091904,-0.858892 1.830267,0.0018 1.924982,2.243868 l 0.07198,1.703922 6.901564,0.03741 c 3.795861,0.02057 6.95384,-0.01487 7.01773,-0.07877 0.0639,-0.0639 0.159207,-0.825725 0.211813,-1.692966 0.21888,-3.608377 2.47545,-3.479551 2.640464,0.150743 l 0.07198,1.583582 h 3.311126 3.311125 l 0.07198,-1.631215 0.07198,-1.631213 0.537743,-0.492226 c 0.676017,-0.618799 1.019455,-0.619378 1.636078,-0.0028 l 0.48947,0.489471 v 1.602496 c 0,1.892267 -0.02968,1.861254 1.561699,1.631993 2.671061,-0.384805 5.431728,-2.443804 6.647549,-4.957968 1.329465,-2.749166 1.127449,-5.678395 -0.321615,-4.66343 -0.176942,0.123935 -0.428931,0.225336 -0.559977,0.225336 -0.131044,0 -0.322841,0.101913 -0.426213,0.226465 -0.103376,0.124556 -0.451415,0.359856 -0.773428,0.52289 -0.322013,0.163036 -0.836259,0.521525 -1.142769,0.796645 -0.306509,0.275119 -1.051512,0.725331 -1.655563,1.00047 -0.604049,0.275139 -1.195446,0.560213 -1.314215,0.633499 -3.205854,1.978154 -8.687871,1.260234 -11.639643,-1.524318 -1.281871,-1.209253 -1.163696,-1.240593 -3.453575,0.915895 -5.882886,5.540191 -6.429681,5.63642 -10.384968,1.827605 C 41.83445,76.76397 42.173574,76.9337 40.793432,78.253976 38.67902,80.276674 36.473676,81.062983 33.87103,80.722138 28.353378,79.99954 27.226951,79.509013 23.564475,76.233925 c -1.428494,-1.277399 -1.426346,-1.278084 -1.426346,0.455153 0,4.950935 4.037232,9.497619 8.277814,9.322381 l 0.71981,-0.02975 z M 51.5947,80.925638 c 0.756669,-0.359063 5.871701,-5.113009 6.103509,-5.672644 0.176918,-0.427116 0.161927,-0.564939 -0.154718,-1.422382 -1.697672,-4.597122 1.092299,-8.778041 6.631537,-9.937707 6.371955,-1.334 9.63898,-4.084538 9.895667,-8.33125 0.116287,-1.923901 0.876495,-2.620641 1.929244,-1.768176 0.380421,0.308046 0.590038,2.463266 0.300387,3.088502 -0.0783,0.169034 -0.314486,0.768753 -0.524842,1.332708 -1.495558,4.009532 -5.100326,6.387952 -11.744418,7.74895 -2.142594,0.438896 -3.74561,1.58776 -4.165144,2.985115 -0.102593,0.341712 -0.252105,0.761869 -0.332247,0.933686 -0.25735,0.551729 -0.05995,2.771748 0.310064,3.487056 1.924769,3.720953 7.297402,4.512736 13.003054,1.916303 1.326907,-0.603826 2.396338,-1.458726 4.973145,-3.975521 2.348506,-2.293811 2.913785,-2.589385 2.219629,-1.160604 -1.282224,2.639205 1.317211,3.05076 2.777382,0.439731 2.997032,-5.359196 2.200282,-11.910362 -2.215224,-18.214369 -1.16765,-1.667051 -1.474242,-2.35273 -1.18013,-2.639302 0.143763,-0.140076 0.263107,-0.07908 0.579534,0.296203 1.861384,2.2076 4.123026,1.151042 3.235052,-1.5113 -0.974269,-2.921074 -3.324198,-7.472921 -5.65808,-10.959787 -0.760236,-1.135807 -1.625626,-2.454893 -1.923089,-2.931304 -1.15919,-1.856533 -3.456872,-4.287108 -5.865467,-6.204715 -1.217908,-0.969641 -3.98307,-2.83517 -4.202401,-2.83517 -0.07919,0 -0.31595,-0.118232 -0.526121,-0.262738 -0.585275,-0.402414 -2.660142,-1.242653 -4.341083,-1.757968 -2.323543,-0.712314 -2.329011,-0.880953 -0.06279,-1.93665 1.960467,-0.913265 2.312414,-1.571301 1.569981,-2.935396 -1.415681,-2.601073 -6.389233,-2.609543 -9.772194,-0.01664 -1.569119,1.202659 -1.627255,0.825952 -0.228754,-1.482259 1.557909,-2.571309 1.22936,-3.701154 -1.076261,-3.701154 -3.456204,0 -6.98561,4.006814 -6.98561,7.930528 0,1.176633 -0.01399,1.18935 -1.717786,1.561208 -6.286267,1.371998 -12.856955,5.592209 -16.39518,10.530271 -4.715375,6.580931 -8.534039,13.743076 -8.577696,16.088008 -0.03411,1.832224 2.200922,2.180688 3.293329,0.513463 0.254932,-0.389074 0.619022,-0.452825 0.742874,-0.130073 0.104517,0.272368 -0.32872,1.109204 -1.379305,2.664255 -4.499398,6.659895 -5.03164,15.138289 -1.203575,19.172474 1.168943,1.231885 2.69957,0.422001 2.221039,-1.175196 -0.373915,-1.248015 0.05719,-1.150886 1.532254,0.345217 5.013238,5.084745 11.227231,7.120353 15.593014,5.108034 3.493922,-1.610453 4.356718,-6.348637 1.5982,-8.77678 -0.904848,-0.796481 -1.56763,-1.025044 -5.784507,-1.994815 -2.742903,-0.630795 -5.895107,-2.515031 -7.501697,-4.484152 -1.586024,-1.943914 -2.59512,-5.464731 -1.933137,-6.744866 0.507429,-0.981259 1.83638,-0.678375 2.005206,0.457011 0.03832,0.257645 0.140123,0.954317 0.226247,1.54816 0.579649,3.996738 3.75774,6.470138 9.896024,7.701736 5.359853,1.075411 8.231188,5.571997 6.481089,10.14955 -0.449612,1.176008 -0.4268,1.232747 1.070854,2.663297 4.803318,4.588102 5.62882,5.07699 7.263141,4.301454 z m 1.639217,-22.943921 c 0,-0.343137 -0.763819,-1.267983 -1.29271,-1.565237 -1.393359,-0.783112 -3.335653,-0.330373 -4.251341,0.990964 -0.563803,0.813569 -1.722296,-0.153714 -2.007985,-1.676565 -0.05614,-0.299281 -0.25861,-0.730171 -0.44992,-0.957531 -0.564422,-0.670776 -0.454636,-1.549883 0.238305,-1.908216 0.67474,-0.348921 0.989397,-0.257871 1.738385,0.503025 0.860615,0.874298 1.092861,0.926427 3.749645,0.841638 l 2.021078,-0.06451 0.627208,-0.673409 c 1.433472,-1.539063 3.297219,-0.303903 2.001311,1.326328 -0.276359,0.34766 -0.50247,0.75577 -0.50247,0.906917 0,0.312792 -0.334499,1.003278 -0.778104,1.606196 -0.330978,0.449841 -1.093402,0.917306 -1.093402,0.670397 z M 35.404253,53.291502 c -2.494187,-0.704283 -4.501225,-3.942911 -4.035043,-6.51109 0.957632,-5.275574 7.974853,-6.230418 10.512451,-1.430444 2.31654,4.381827 -1.68958,9.293473 -6.477408,7.941534 z m 4.235318,-5.911432 c 1.030982,-0.675525 0.864456,-2.298145 -0.292182,-2.847006 -1.266447,-0.600969 -2.521964,0.300304 -2.337208,1.677763 0.169844,1.266282 1.546795,1.878588 2.62939,1.169243 z m 22.863123,5.934972 c -2.559,-0.621029 -4.346305,-2.954409 -4.184847,-5.463442 0.325033,-5.050973 5.900108,-7.451628 9.531512,-4.104317 4.17046,3.844197 0.217428,10.918078 -5.346665,9.567759 z m 4.050816,-5.782303 c 1.014611,-0.481464 1.207503,-1.923719 0.359524,-2.688163 -1.220203,-1.100001 -3.27817,0.122586 -2.71394,1.612285 0.411885,1.087474 1.389021,1.533988 2.354416,1.075878 z M 23.882488,32.895731 c 1.051059,-1.359869 3.236534,-3.603814 4.545264,-4.666865 3.044046,-2.472608 2.960359,-2.307939 1.898293,-3.735234 -2.416277,-3.247197 -1.736209,-6.751862 1.766097,-9.101416 1.709114,-1.146575 0.88737,-2.893114 -1.117319,-2.374754 -2.506305,0.648064 -6.626039,3.434252 -7.722199,5.222544 -0.17243,0.281303 -0.509925,0.771687 -0.749992,1.089743 -0.642782,0.8516 -1.490301,2.757054 -1.664741,3.742792 -0.08385,0.473857 -0.224274,1.200093 -0.31204,1.613859 -0.376337,1.774223 -0.07427,4.043495 0.787803,5.918386 0.973124,2.116407 1.46669,2.902784 1.821917,2.902784 0.152223,0 0.484216,-0.271953 0.746917,-0.611839 z M 79.201764,31.312149 C 82.673673,24.248723 79.09939,16.679436 70.720308,13.35091 c -2.820931,-1.120593 -4.230675,0.563642 -1.824119,2.179293 1.621991,1.08893 2.500847,2.304798 2.967405,4.105305 0.221043,0.853031 0.204396,1.196198 -0.142177,2.930951 -0.05536,0.277127 -0.516261,1.076816 -1.024213,1.777087 -1.140818,1.572752 -1.166769,1.468409 0.74851,3.009521 1.966703,1.582489 4.159141,3.73758 5.199345,5.110778 1.183844,1.562823 1.233402,1.5405 2.556705,-1.151696 z"
         id="path316" /><path
         style="fill:#305992;stroke-width:1.1517"
         d="M 25.017368,95.318075 C 13.93154,94.18498 6.3779965,87.195242 4.8463227,76.652624 4.6180152,75.081173 4.5088816,25.081683 4.7298391,23.286269 5.427199,17.619809 7.2252461,13.709018 10.756834,10.17743 14.472082,6.4621827 18.547609,4.6574281 25.024839,3.859167 c 1.718189,-0.2117512 49.700019,-0.2102746 51.386958,0.00158 2.662677,0.3343958 3.929228,0.590791 5.352707,1.0835786 8.23422,2.8505717 13.723323,9.9032304 14.499674,18.6298664 0.182104,2.046948 0.195655,45.638231 0.01552,49.935483 -0.479515,11.439422 -6.552481,18.947271 -17.440827,21.561636 -0.976038,0.234353 -51.669009,0.466772 -53.821505,0.246763 z m 6.071058,-9.358674 c 0.22249,-0.201351 0.26327,-0.467231 0.26327,-1.716499 0,-1.380294 0.02469,-1.507592 0.372702,-1.921174 0.9886,-1.174885 2.074651,-0.133202 2.074651,1.989897 0,1.983756 -0.179025,1.886031 3.455088,1.886031 3.608862,0 3.392157,0.123316 3.488258,-1.985003 0.149341,-3.276361 2.414183,-3.324071 2.414183,-0.05086 0,2.254388 -0.78087,2.03586 7.274766,2.03586 7.879326,0 7.072365,0.218455 7.205034,-1.950507 0.108433,-1.772698 0.416828,-2.368353 1.226194,-2.368353 0.808015,0 1.137558,0.677621 1.137558,2.339092 0,2.09471 -0.203323,1.979768 3.502055,1.979768 3.748341,0 3.552083,0.106243 3.552083,-1.922956 0,-2.095881 0.96388,-3.043483 2.04358,-2.009065 0.392936,0.376458 0.403773,0.428024 0.403773,1.921177 0,2.012923 0.104091,2.134822 1.622645,1.900353 4.134043,-0.638306 7.734884,-4.667077 7.734884,-8.654109 0,-1.295835 -0.498823,-1.799995 -1.232152,-1.245334 -0.153696,0.11625 -0.387848,0.213424 -0.520336,0.215943 -0.132489,0.0025 -0.424012,0.157421 -0.647829,0.344228 -0.223818,0.186809 -0.633681,0.454768 -0.910808,0.595467 -0.277127,0.140698 -0.755006,0.48097 -1.061954,0.756158 -0.306947,0.275188 -0.954776,0.677785 -1.43962,0.89466 -1.406454,0.62912 -1.58887,0.715285 -1.817286,0.858413 -0.935193,0.586 -5.076716,1.0461 -6.642847,0.737984 -1.397001,-0.274845 -3.22862,-1.272024 -4.497527,-2.44857 -1.391057,-1.289806 -1.183938,-1.342327 -3.582538,0.908457 -6.051222,5.678315 -6.204294,5.695399 -10.874103,1.213646 -3.641347,-3.494707 -3.45669,-3.419861 -4.971677,-2.015146 -2.198548,2.038521 -4.149228,2.693835 -6.933405,2.329216 -5.501788,-0.720521 -6.342714,-1.088447 -10.122162,-4.428707 -1.494586,-1.320909 -1.610739,-1.280725 -1.610739,0.557237 0,2.164707 0.702913,4.242148 2.030155,6.000066 1.60728,2.128827 6.047017,4.17308 7.064104,3.252629 z m 20.351491,-4.782897 c 0.559411,-0.254108 4.982255,-4.1704 5.933985,-5.254362 0.640531,-0.729523 0.692037,-1.073811 0.319224,-2.133827 -1.120398,-3.185627 -0.134168,-6.337746 2.55001,-8.150161 0.489959,-0.330832 0.931674,-0.667591 0.981588,-0.748354 0.166284,-0.269055 1.132369,-0.592332 3.022285,-1.011338 6.453939,-1.430873 9.566764,-4.066216 9.823686,-8.316807 0.116287,-1.923901 0.876495,-2.620641 1.929244,-1.768176 0.428356,0.346862 0.602385,2.575113 0.234923,3.007911 -0.113926,0.13418 -0.387875,0.750011 -0.608779,1.368512 -1.368839,3.832564 -4.732674,6.114723 -11.09115,7.524675 -2.604817,0.577602 -4.498691,1.788049 -4.748981,3.035251 -0.04507,0.224583 -0.160556,0.602681 -0.256637,0.840219 -1.290172,3.189638 1.85997,7.078532 5.967298,7.366712 4.450494,0.312257 8.021344,-1.287556 12.393078,-5.55235 2.078027,-2.027195 2.502077,-2.312892 2.150643,-1.448963 -0.09539,0.234516 -0.251462,0.61816 -0.34681,0.852544 -0.343383,0.844104 0.517131,1.895003 1.375325,1.679609 1.678447,-0.421263 3.692743,-5.057091 3.692743,-8.498713 0,-3.637012 -1.58369,-8.1099 -4.14999,-11.721001 -1.158749,-1.630503 -1.315699,-1.894857 -1.318443,-2.220678 -0.0032,-0.377948 0.368538,-0.30348 0.718603,0.143962 1.742953,2.227783 4.113274,1.014452 3.224419,-1.650532 -0.972221,-2.914934 -3.456655,-7.718412 -5.774958,-11.165474 -0.733461,-1.090576 -1.370455,-2.129841 -1.41554,-2.309477 -0.74214,-2.956923 -9.692146,-9.970922 -14.605933,-11.446474 -0.277127,-0.08322 -0.979496,-0.289364 -1.560821,-0.458103 -1.318629,-0.382753 -1.217301,-0.57921 0.77822,-1.508804 1.644613,-0.766128 1.996,-1.165448 1.882184,-2.138932 -0.40222,-3.440234 -6.603521,-3.918528 -10.333129,-0.796973 -0.698507,0.584628 -0.987755,0.691401 -0.987755,0.364623 0,-0.23293 1.571806,-2.879812 1.751729,-2.949869 1.017243,-0.396087 0.298616,-2.383269 -0.977709,-2.703606 -3.440204,-0.863436 -7.648389,3.249139 -7.956851,7.77607 l -0.08725,1.280454 -1.871506,0.468504 c -4.653666,1.164975 -7.845469,2.744489 -11.301016,5.592489 -2.458144,2.025957 -5.542385,5.422659 -5.83136,6.422125 -0.05723,0.197947 -0.345272,0.683819 -0.64009,1.079714 -2.873143,3.858202 -6.794877,11.65443 -6.830748,13.579213 -0.03503,1.879825 2.14119,2.294652 3.306909,0.630357 0.122209,-0.174481 0.355116,-0.317238 0.517568,-0.317238 0.462917,0 0.255113,0.499426 -0.93889,2.256488 -4.838765,7.120591 -5.477106,14.68898 -1.649345,19.555189 1.115766,1.418465 3.103009,0.622632 2.55927,-1.024913 -0.367097,-1.112314 -0.04925,-1.028786 1.341171,0.352445 7.577619,7.52757 17.91077,7.939191 19.019137,0.757627 0.51024,-3.306042 -1.37655,-5.223712 -6.246662,-6.348902 -5.369145,-1.240484 -8.543924,-3.438179 -9.918792,-6.866141 -0.247898,-0.618084 -0.579552,-1.382921 -0.737009,-1.699637 -0.52721,-1.060452 -0.306155,-3.034678 0.368792,-3.29368 0.729465,-0.279922 1.442901,0.155817 1.561547,0.953729 0.03832,0.257645 0.140122,0.954317 0.226247,1.54816 0.577607,3.98266 3.747313,6.460143 9.84467,7.694719 2.525126,0.511279 2.511155,0.503852 4.727574,2.513636 1.940649,1.759723 2.622492,4.514504 1.774561,7.16957 -0.597496,1.870897 -0.663262,1.770213 3.741173,5.727518 2.378243,2.136805 3.244855,2.51722 4.468348,1.96146 z m 1.652715,-23.839337 c -1.305779,-1.897883 -3.601693,-2.008499 -5.2868,-0.254713 -0.760091,0.79107 -0.767417,0.794667 -1.066658,0.523858 -0.417677,-0.377993 -0.942518,-1.325944 -1.067784,-1.928597 -0.05761,-0.277127 -0.258303,-0.68699 -0.446,-0.910808 -0.558054,-0.665445 -0.444782,-1.545138 0.244876,-1.901775 0.67474,-0.348921 0.989397,-0.257871 1.738385,0.503025 0.860615,0.874298 1.092861,0.926427 3.749645,0.841638 l 2.021078,-0.06451 0.627208,-0.673409 c 1.433472,-1.539063 3.297219,-0.303903 2.001311,1.326328 -0.276359,0.34766 -0.50247,0.75577 -0.50247,0.906917 0,0.519403 -0.942641,2.020995 -1.372174,2.185822 -0.130484,0.05008 -0.364105,-0.151882 -0.640617,-0.553779 z M 35.501394,53.315569 c -3.321366,-0.956548 -5.02689,-5.450575 -3.206075,-8.447958 2.236599,-3.68184 7.647173,-3.274028 9.544885,0.719428 2.090905,4.4 -1.728182,9.056382 -6.33881,7.72853 z m 3.650987,-5.560777 c 1.582484,-0.439522 1.746583,-2.609963 0.255623,-3.380968 -1.684276,-0.870974 -3.411261,1.231134 -2.196995,2.674209 0.610087,0.725046 1.157717,0.924412 1.941372,0.706759 z m 23.350313,5.56025 c -2.361397,-0.573074 -4.157668,-2.716054 -4.102671,-4.894553 0.124657,-4.937804 4.721207,-7.654264 8.652425,-5.113394 5.032985,3.252975 1.315031,11.431238 -4.549754,10.007947 z m 4.133203,-5.634207 c 1.072961,-0.554849 1.304965,-1.879633 0.487609,-2.784346 -1.168322,-1.293195 -3.097495,-0.594277 -3.089239,1.119197 0.0067,1.384903 1.408511,2.282136 2.60163,1.665149 z M 23.620283,33.309954 c 0.174553,-0.187867 0.706068,-0.813663 1.181142,-1.390656 1.334654,-1.620978 3.014826,-3.254994 4.788639,-4.657091 1.070841,-0.846438 1.61767,-1.373581 1.61767,-1.559436 0,-0.253517 -1.027736,-1.808468 -1.59458,-2.412579 -0.40017,-0.42648 -0.936256,-2.532195 -0.715148,-2.809058 0.06416,-0.08034 0.188517,-0.487052 0.276334,-0.90379 0.339855,-1.612805 1.22826,-2.858826 2.782788,-3.902963 1.962066,-1.317868 1.28711,-3.40708 -0.914884,-2.831865 -2.689417,0.702542 -7.092568,3.706197 -7.991325,5.451367 -0.129611,0.251671 -0.383136,0.651932 -0.56339,0.889469 -0.584905,0.77078 -1.640606,3.144827 -1.792492,4.030936 -0.08144,0.475074 -0.211139,1.140029 -0.288237,1.477676 -0.303667,1.329907 -0.05722,4.5085 0.402441,5.19055 0.143045,0.212251 0.570945,1.023143 0.950888,1.801982 0.971732,1.991933 1.274131,2.256178 1.860154,1.625458 z m 54.659032,-0.08471 c 0.166948,-0.234457 0.576252,-0.996583 0.909565,-1.693611 0.333313,-0.697029 0.74923,-1.496651 0.924259,-1.776939 1.305452,-2.090512 0.556758,-6.906212 -1.638532,-10.539259 -2.310106,-3.823057 -9.051863,-7.682948 -10.471789,-5.995461 -0.723022,0.859262 -0.37179,1.649461 1.210879,2.724232 2.912405,1.977776 3.555486,5.460462 1.504607,8.148384 -1.373088,1.799595 -1.465724,1.529796 1.278575,3.72376 1.461077,1.168076 3.536086,3.29652 4.565905,4.683484 0.958712,1.291195 1.231553,1.406499 1.716531,0.72541 z"
         id="path315" /><path
         style="display:inline;fill:url(#linearGradient322);stroke-width:1.1517"
         d="M 24.009634,95.182703 C 13.479809,93.770919 5.8970978,86.277062 4.8698968,76.267243 4.663134,74.2524 4.6612337,24.533739 4.8678456,22.596775 5.8707608,13.194514 12.750125,6.0381836 22.570015,4.1819101 24.661709,3.7865123 76.582718,3.781709 78.715188,4.176716 c 9.249758,1.713371 16.501905,9.445513 17.417355,18.570148 0.288542,2.876014 0.117833,53.279192 -0.185364,54.730258 -0.623668,2.984791 -1.810899,5.934026 -3.353385,8.330236 -0.685692,1.065204 -2.630516,3.554971 -2.78129,3.560612 -0.04632,0.0017 -0.458862,0.354486 -0.916754,0.783893 -2.296721,2.153848 -5.973692,3.943508 -9.964619,4.849992 l -1.439619,0.326989 -25.985139,0.02826 C 29.857942,95.380654 25.268962,95.351504 24.009634,95.1827 Z m 7.222754,-9.07934 c 0.22126,-0.200238 0.26327,-0.465552 0.26327,-1.662713 0,-1.536204 0.197156,-2.180027 0.718231,-2.34541 0.923222,-0.293019 1.441198,0.56256 1.441198,2.380529 0,1.966257 -0.192332,1.865849 3.574036,1.865849 3.745942,0 3.622399,0.05346 3.627498,-1.569903 0.0074,-2.358975 0.793966,-3.404262 1.802634,-2.395596 0.33121,0.331211 0.353361,0.450076 0.353361,1.896162 0,2.295374 -0.81036,2.069337 7.418728,2.069337 8.004671,0 7.207409,0.195741 7.334435,-1.800733 0.11989,-1.884293 0.158967,-2.040345 0.580026,-2.316232 0.959593,-0.62875 1.510363,0.170216 1.510363,2.190984 0,2.039339 -0.214594,1.925981 3.646017,1.925981 3.923333,0 3.696045,0.121568 3.696045,-1.976874 0,-1.466346 0.0096,-1.509903 0.420812,-1.921173 1.040781,-1.040782 1.738617,-0.306786 1.738617,1.82871 0,1.752463 0.143699,2.069337 0.938416,2.069337 2.767563,0 6.36925,-2.398563 7.765752,-5.171644 1.521046,-3.020395 1.148777,-6.410905 -0.56184,-5.11706 -0.153697,0.116251 -0.388701,0.211365 -0.522231,0.211365 -0.133529,0 -0.327358,0.101913 -0.43073,0.226465 -0.103376,0.124556 -0.451415,0.359856 -0.773428,0.52289 -0.322013,0.163036 -0.836259,0.521525 -1.142769,0.796645 -0.306509,0.275119 -1.051512,0.725331 -1.655563,1.00047 -0.604049,0.275139 -1.195446,0.560213 -1.314215,0.633499 -3.205854,1.978154 -8.687871,1.260234 -11.639643,-1.524318 -1.281871,-1.209253 -1.163696,-1.240593 -3.453575,0.915895 -5.882886,5.540191 -6.429681,5.63642 -10.384968,1.827605 C 41.83445,76.476046 42.173574,76.645776 40.793432,77.966052 38.67902,79.988751 36.473676,80.775059 33.87103,80.434214 28.348289,79.71095 27.228219,79.2225 23.550846,75.933695 22.04893,74.590478 21.935088,74.627776 21.877604,76.48189 c -0.122922,3.964725 1.861613,7.2004 5.553223,9.054221 1.513943,0.76026 3.29468,1.025974 3.801561,0.567252 z m 20.386103,-4.984422 c 0.624804,-0.32444 1.189592,-0.805652 4.243808,-3.615825 2.278395,-2.096344 2.380712,-2.316068 1.819382,-3.907123 -1.576937,-4.469737 1.057611,-8.308598 6.521111,-9.502059 6.582307,-1.437855 9.712637,-4.07248 10.038089,-8.448503 0.112555,-1.513392 0.33845,-1.983184 0.953602,-1.983184 1.767382,0 1.204007,4.05157 -0.988145,7.106344 -1.446002,2.015013 -5.148275,3.885476 -9.705608,4.903472 -2.779474,0.620866 -4.260457,1.63165 -4.867533,3.322136 -0.142171,0.395895 -0.319858,0.800554 -0.39486,0.89924 -0.265925,0.349902 -0.04138,2.785787 0.321271,3.485181 2.046811,3.947402 7.468312,4.843058 13.287185,2.195103 1.315816,-0.598779 2.391756,-1.455541 4.896652,-3.899162 1.959638,-1.9117 2.438153,-2.241011 1.907496,-1.312723 -0.926958,1.621544 0.923606,2.984015 2.31323,1.703106 4.31389,-3.976405 3.785435,-12.744931 -1.197524,-19.87022 -1.119079,-1.600206 -1.379246,-2.131526 -1.043725,-2.131526 0.07918,0 0.143962,0.06328 0.143962,0.140614 0,0.349308 1.467387,1.299006 2.007106,1.299006 1.432918,0 2.118898,-1.205172 1.602111,-2.814689 -0.984936,-3.067555 -3.30555,-7.613229 -5.754038,-11.271143 -0.760236,-1.135753 -1.517718,-2.295073 -1.683293,-2.576266 -0.921884,-1.565627 -4.17986,-5.001021 -6.476523,-6.829213 -1.146349,-0.912518 -3.616263,-2.565808 -3.83316,-2.565808 -0.07809,0 -0.313931,-0.118232 -0.524102,-0.262738 -0.559725,-0.384847 -2.619027,-1.225578 -4.269102,-1.742905 -0.791791,-0.248241 -1.527895,-0.482336 -1.635786,-0.520213 -0.362593,-0.127293 0.135394,-0.515019 1.419843,-1.10547 2.114818,-0.972166 2.467523,-1.584939 1.748274,-3.037372 -1.44652,-2.921069 -8.086243,-2.861947 -10.511592,0.0936 -0.108674,0.132425 -0.25443,0.240772 -0.323914,0.240772 -0.272606,0 -0.09347,-0.44023 0.679385,-1.669586 1.368812,-2.177331 1.453431,-2.478549 0.910474,-3.241061 -0.438567,-0.61591 -0.998357,-0.847832 -2.046412,-0.847832 -3.582076,0 -7.155805,3.917158 -7.155805,7.843465 0,1.268506 0.03091,1.240084 -1.799525,1.654633 -4.141171,0.937875 -7.965073,2.777152 -11.085072,5.33186 -2.390685,1.957532 -5.51461,5.237964 -6.118601,6.425139 -0.115055,0.226149 -0.476176,0.767487 -0.802486,1.202972 -2.160102,2.882815 -4.816573,7.755957 -6.35272,11.653695 -0.819391,2.079082 -0.817629,2.804121 0.0086,3.561356 0.883066,0.80927 1.592716,0.668273 2.935877,-0.583317 0.892361,-0.831524 0.60856,-0.14459 -0.824581,1.995876 -4.29908,6.420886 -5.096383,12.518459 -2.330799,17.825371 1.050843,2.016476 2.214455,2.900364 3.023951,2.29702 0.692497,-0.516143 0.959947,-1.141803 0.778568,-1.821342 -0.22815,-0.854766 -0.17011,-0.829308 1.174263,0.515065 4.400281,4.400281 9.368231,6.47968 13.737487,5.749998 5.000862,-0.83516 7.123883,-6.188399 3.784777,-9.543386 -1.071989,-1.077088 -1.724752,-1.336284 -5.703268,-2.264632 -3.97323,-0.927115 -7.183683,-3.111816 -8.593609,-5.847919 -1.637868,-3.178444 -1.616568,-6.223685 0.03874,-5.538036 0.453362,0.18779 0.706687,0.80623 0.708141,1.728788 0.0064,4.086648 3.658735,7.112382 10.250261,8.491796 5.130693,1.073704 7.895524,5.270434 6.304565,9.569688 -0.632938,1.710396 -0.54553,1.861931 2.7222,4.719363 0.744126,0.650693 1.612171,1.430228 1.928987,1.732298 1.397396,1.332354 2.633918,1.678205 3.81233,1.066298 z m 1.468994,-23.78966 c -1.126611,-1.822894 -3.601085,-1.977086 -5.210573,-0.324685 -0.693239,0.711722 -0.706497,0.717738 -0.998825,0.453184 -0.412798,-0.373577 -0.934323,-1.327512 -1.040046,-1.902376 -0.04877,-0.265219 -0.250971,-0.675083 -0.449321,-0.910808 -0.735149,-0.873676 -0.204735,-1.844294 0.935022,-1.711022 0.118769,0.01389 0.487462,0.310896 0.819318,0.660019 0.765687,0.805527 0.85322,0.823945 3.637107,0.765319 l 2.319001,-0.04883 0.627613,-0.68382 c 0.650186,-0.708413 1.088754,-0.849092 1.672731,-0.536557 0.642861,0.344048 0.613677,1.150083 -0.06194,1.710798 -0.120299,0.09984 -0.31692,0.516209 -0.436936,0.925266 -0.484154,1.650174 -1.324821,2.393646 -1.813147,1.603517 z M 35.814517,53.183046 c -3.346912,-0.777754 -5.279074,-4.773694 -3.757364,-7.77067 2.65028,-5.219667 10.329262,-3.201567 10.30156,2.707335 -0.01565,3.338511 -3.237941,5.831641 -6.544196,5.063335 z m 3.734134,-5.542334 c 1.752149,-0.939689 0.986017,-3.479955 -1.049538,-3.479955 -0.827047,0 -1.676862,0.870538 -1.676862,1.717756 0,1.559114 1.40808,2.469221 2.7264,1.762199 z m 23.239165,5.531087 c -5.126103,-1.011571 -5.847462,-7.835052 -1.081242,-10.227681 3.213023,-1.612929 7.062758,0.455264 7.639578,4.10421 0.413096,2.613231 -1.632199,5.556043 -4.246432,6.109856 -1.151282,0.243893 -1.145158,0.243857 -2.311904,0.01361 z m 3.891115,-5.4863 c 1.27346,-0.604296 1.246997,-2.63471 -0.04304,-3.30181 -1.568269,-0.810984 -3.387419,1.014005 -2.469746,2.477671 0.58694,0.936154 1.586126,1.263865 2.512781,0.824139 z M 24.352428,32.660671 c 1.282564,-1.583213 3.582231,-3.863335 5.127762,-5.084183 2.240443,-1.769773 2.189708,-1.556404 0.823026,-3.461275 -1.85744,-2.588885 -1.467576,-6.045757 0.878287,-7.787628 1.974924,-1.466439 2.338059,-2.068667 1.798321,-2.98237 -1.15926,-1.96247 -7.511711,1.375105 -10.426789,5.478232 -1.800778,2.534692 -2.207303,3.910867 -2.211388,7.486024 l -0.003,2.663296 0.481065,1.151696 c 1.624031,3.888029 2.138462,4.257344 3.532759,2.536208 z m 54.170434,0.522984 c 0.332191,-0.525005 0.853355,-1.591799 1.717897,-3.516439 1.135617,-2.528108 0.361074,-7.84439 -1.494595,-10.258546 -0.214984,-0.279687 -0.559183,-0.771627 -0.764883,-1.0932 -1.917408,-2.997473 -8.600021,-6.547612 -9.892331,-5.255302 -0.901789,0.901789 -0.592895,1.755759 1.044528,2.887709 2.96017,2.046364 3.5108,5.43387 1.358752,8.359111 -1.288854,1.751917 -1.38374,1.480611 1.240802,3.547781 1.365645,1.075625 3.909816,3.60014 4.608691,4.573086 1.134576,1.579514 1.565469,1.728825 2.181139,0.7558 z"
         id="path314" /></g></g></svg>
