<?xml version="1.0" encoding="UTF-8" standalone="no"?>
<!-- Created with Inkscape (http://www.inkscape.org/) -->

<svg
   width="100mm"
   height="100mm"
   viewBox="0 0 100 100"
   version="1.1"
   id="svg1"
   xml:space="preserve"
   inkscape:version="1.3 (0e150ed6c4, 2023-07-21)"
   sodipodi:docname="kudomonster.svg"
   xmlns:inkscape="http://www.inkscape.org/namespaces/inkscape"
   xmlns:sodipodi="http://sodipodi.sourceforge.net/DTD/sodipodi-0.dtd"
   xmlns:xlink="http://www.w3.org/1999/xlink"
   xmlns="http://www.w3.org/2000/svg"
   xmlns:svg="http://www.w3.org/2000/svg"><sodipodi:namedview
     id="namedview1"
     pagecolor="#ffffff"
     bordercolor="#666666"
     borderopacity="1.0"
     inkscape:showpageshadow="2"
     inkscape:pageopacity="0.0"
     inkscape:pagecheckerboard="0"
     inkscape:deskcolor="#d1d1d1"
     inkscape:document-units="mm"
     inkscape:zoom="1.4342733"
     inkscape:cx="191.03752"
     inkscape:cy="186.5056"
     inkscape:window-width="1920"
     inkscape:window-height="1043"
     inkscape:window-x="0"
     inkscape:window-y="0"
     inkscape:window-maximized="1"
     inkscape:current-layer="g313" /><defs
     id="defs1"><linearGradient
       id="linearGradient321"
       inkscape:collect="always"><stop
         style="stop-color:#231e60;stop-opacity:1;"
         offset="0.5609706"
         id="stop321" /><stop
         style="stop-color:#231e60;stop-opacity:0;"
         offset="1"
         id="stop322" /></linearGradient><linearGradient
       inkscape:collect="always"
       xlink:href="#linearGradient321"
       id="linearGradient322"
       x1="51.375"
       y1="89.328011"
       x2="51.8125"
       y2="9.7760706"
       gradientUnits="userSpaceOnUse" /></defs><g
     inkscape:label="kudomonster"
     inkscape:groupmode="layer"
     id="layer1"><g
       id="g313"><rect
         style="fill:#ffffff;stroke:none;stroke-width:0.876;stroke-linecap:round;stroke-linejoin:round;paint-order:stroke fill markers;stroke-dasharray:none;fill-opacity:1"
         id="rect1"
         width="70.795395"
         height="65.075439"
         x="15.034766"
         y="16.424559" /><path
         style="fill:#acdcec"
         d="M 27.5625,89.487509 C 18.161299,88.507555 11.290993,81.535773 10.514296,72.1875 10.298755,69.593261 10.346048,27.50055 10.566273,25.925862 11.753023,17.440177 17.622482,11.402897 26.189861,9.8555613 L 27.8125,9.5625 h 22.875 22.875 l 1.524215,0.2830123 c 8.415754,1.5626147 14.692143,8.4577027 15.410426,16.9295187 0.295571,3.486128 0.101515,45.261267 -0.218276,46.988797 -1.592556,8.603103 -8.187941,14.939829 -16.37914,15.73678 -1.503478,0.146279 -44.925993,0.134004 -46.337225,-0.0131 z M 51.637495,76.478974 c 1.003738,-0.722732 4.696499,-4.208781 4.897096,-4.622967 0.175239,-0.36183 0.176844,-0.456337 0.01435,-0.845239 -1.152593,-2.758544 -0.328614,-5.837122 2.028947,-7.580621 1.206378,-0.892159 1.166325,-1.127224 -0.358251,-2.102483 -2.396877,-1.533263 -5.374929,-0.952603 -6.815865,1.328957 -0.869311,1.376456 -0.97945,1.383976 -1.845212,0.125983 -1.802066,-2.618488 -5.42066,-3.036397 -7.588186,-0.876354 -0.584739,0.58272 -0.59527,0.87117 -0.04424,1.211725 2.448651,1.51335 3.413259,4.439833 2.485675,7.541187 l -0.328,1.096663 0.364346,0.38794 c 0.764606,0.81412 4.389578,4.03905 4.920069,4.377103 0.78953,0.503125 1.531364,0.48943 2.269272,-0.04189 z M 42.25,66.553772 c 0,-0.130511 -0.719259,-1.112389 -1.017971,-1.389657 -0.563762,-0.523291 -1.924009,-1.034751 -4.071505,-1.530908 -4.786985,-1.105983 -7.802994,-3.340803 -8.909692,-6.601957 -0.335047,-0.987295 -0.580627,-1.205441 -0.452084,-0.401581 0.388355,2.428639 2.628759,4.883124 5.759502,6.30985 0.975747,0.444662 2.066329,0.769258 4.609942,1.372081 1.682156,0.398662 2.3313,0.726174 3.202538,1.615772 0.622864,0.63599 0.87927,0.818656 0.87927,0.6264 z m 17.317199,-0.688869 c 0.819409,-0.838954 1.230362,-1.034378 3.138606,-1.492526 0.883682,-0.212162 1.955048,-0.472493 2.380814,-0.578514 3.619604,-0.901322 7.015817,-3.789009 7.906132,-6.722321 0.383893,-1.264809 0.117607,-1.277892 -0.336712,-0.01654 -1.262887,3.506219 -4.174011,5.533103 -9.718539,6.766578 -2.155219,0.479465 -3.245303,1.075049 -3.98083,2.174986 -0.490031,0.732814 -0.165437,0.662815 0.610529,-0.13166 z M 36.170383,53.56176 c 0.469297,-0.469297 0.397078,-0.671214 -0.577529,-1.614714 -2.73729,-2.649923 -2.548034,-6.277222 0.427874,-8.200644 3.409724,-2.20381 8.381718,0.963486 7.782732,4.957812 -0.102876,0.686027 0.158292,0.745243 0.615403,0.139536 1.511116,-2.002343 -0.07049,-5.652572 -3.117316,-7.194534 -4.729373,-2.393479 -10.402398,2.408146 -9.127861,7.725784 0.530267,2.212385 3.187487,4.99597 3.996697,4.18676 z M 66.15751,53.256252 c 1.181554,-0.749319 2.355168,-2.672126 2.602102,-4.263188 0.662535,-4.268886 -2.456494,-7.986315 -6.705674,-7.992188 -3.612314,-0.005 -7.235038,4.486176 -5.876075,7.284696 0.476255,0.980755 0.947137,0.903803 0.947137,-0.154782 0,-3.881826 4.433284,-6.458132 7.635054,-4.436943 3.044911,1.922168 3.332749,5.754418 0.616814,8.212198 -0.83149,0.752455 -0.896969,0.960218 -0.44505,1.412137 0.392342,0.392342 0.519512,0.385916 1.225692,-0.06193 z M 64.30405,47.666356 C 65.517321,47.087787 65.14453,45.25 63.813898,45.25 c -1.440965,0 -1.790503,1.609343 -0.518059,2.385242 0.475784,0.290119 0.465722,0.289809 1.008211,0.03111 z m -23.447178,-0.09448 c 0.938055,-0.485086 0.806286,-1.79123 -0.227747,-2.257514 -0.637071,-0.287279 -1.241747,-0.06761 -1.572039,0.571109 -0.579581,1.120787 0.655553,2.278111 1.799786,1.686405 z M 31.275811,34.838572 C 35.534302,30.580542 41.663274,27.45369 45.375,27.64551 l 0.8125,0.04199 0.07857,-1.625 c 0.1139,-2.355694 0.617287,-3.582246 2.007898,-4.892446 1.221539,-1.150903 1.750682,-1.305684 3.913532,-1.144757 0.912422,0.06789 0.689899,-1.078138 -0.288736,-1.487038 -2.715208,-1.134486 -6.759578,2.958316 -6.771594,6.852685 -0.0027,0.866019 -0.03795,0.896038 -1.43967,1.224985 -3.750032,0.880037 -7.36216,2.605784 -9.9375,4.747787 -2.772135,2.305686 -5.296128,5.135034 -5.080985,5.695688 0.110211,0.287203 0.03099,0.35469 2.606796,-2.220832 z M 72.375,37.091517 c 0,-1.132947 -4.966727,-5.885006 -8.096969,-7.747008 -2.23935,-1.332062 -6.560785,-2.930418 -6.98069,-2.581928 -0.703991,0.584261 -0.549628,0.763499 1.015159,1.178752 0.6875,0.182444 1.390625,0.410124 1.5625,0.505957 0.171875,0.09583 0.621875,0.291332 1,0.434445 2.986122,1.130189 6.847249,3.763419 9.1875,6.265736 0.4125,0.441066 1.022641,1.094571 1.355869,1.452234 C 72.00444,37.22875 72.375,37.419258 72.375,37.091517 Z M 26.363651,31.833905 C 27.475,31.208926 30.088578,30.101496 32.03125,29.432418 32.934596,29.121296 33.375,28.908323 33.375,28.7826 c 0,-0.201598 -1.332176,-2.034212 -1.475763,-2.030141 -0.04771,0.0014 -0.536737,0.08593 -1.086737,0.187942 -0.55,0.102015 -1.28125,0.218405 -1.625,0.258644 -0.542416,0.06349 -2.25394,0.415138 -3.871653,0.795453 -0.747152,0.175651 -0.82827,0.365061 -0.749122,1.749196 0.166857,2.917998 0.218375,2.977925 1.796926,2.090211 z m 49.748003,0.07234 c 0.199806,-0.483738 0.386767,-1.7154 0.387622,-2.553571 0.0012,-1.207725 -0.257808,-1.345191 -3.749276,-1.989653 -1.977368,-0.364986 -3.643071,-0.598869 -3.798673,-0.533374 -0.662716,0.278943 -1.559095,2.16868 -1.029771,2.170953 0.07752,3.33e-4 0.703444,0.256178 1.390944,0.568546 0.6875,0.312367 1.896875,0.822114 2.6875,1.132771 0.790625,0.310657 1.914425,0.786061 2.497333,1.056454 1.258543,0.583799 1.427858,0.599309 1.614321,0.147874 z M 51.75427,24.807381 c 2.076449,-2.104982 5.317564,-2.860227 7.512491,-1.75056 0.716484,0.362226 1.051207,0.362249 1.190184,8.2e-5 0.414379,-1.079855 -2.938108,-2.18642 -5.097574,-1.682571 C 53.155414,21.888561 50.75,23.876379 50.75,25.183485 c 0,0.48021 0.253046,0.385443 1.00427,-0.376104 z M 31.618427,23.78125 c 0.0716,-0.257813 0.131042,-0.553125 0.132097,-0.65625 0.0079,-0.776793 1.159669,-2.280689 2.453864,-3.204208 1.010167,-0.720839 1.18903,-1.210539 0.652499,-1.786437 -0.744808,-0.799458 -5.014286,1.254723 -7.075637,3.404314 -1.292059,1.347368 -1.131559,1.53237 2.03125,2.341352 1.746341,0.446678 1.653031,0.451781 1.805927,-0.09877 z M 71.25,23.79698 c 3.257501,-0.753724 3.215693,-0.725808 2.458139,-1.641326 -1.707488,-2.063531 -6.339481,-4.65411 -7.515039,-4.203006 -0.844205,0.323952 -0.586439,1.243125 0.584245,2.083371 1.345904,0.966007 2.110452,2.003941 2.355914,3.198338 0.220489,1.072878 0.07668,1.034654 2.116741,0.562623 z"
         id="path320" /><path
         style="fill:#de6c90"
         d="M 28.0625,89.417863 C 18.453336,88.573868 11.349114,81.520424 10.645147,72.125 10.357016,68.279491 10.527332,26.499532 10.837762,24.875 12.336381,17.032463 18.006647,11.547656 26.245385,9.9713191 27.882472,9.6580914 70.296473,9.4521787 73.220514,9.7432629 82.626282,10.679594 89.635644,17.702562 90.379425,26.935482 90.616435,29.877602 90.4651,71.909656 90.212221,73.375 88.792534,81.601595 83.452141,87.299197 75.375,89.204654 74.512332,89.408164 30.224349,89.607743 28.0625,89.417863 Z M 51.631777,76.641885 c 0.786392,-0.506762 4.826316,-4.323261 5.06506,-4.784941 0.185236,-0.358207 0.181252,-0.431224 -0.05944,-1.089195 -1.065466,-2.912656 -0.276018,-5.585823 2.163783,-7.326829 1.208519,-0.862381 1.155559,-1.207609 -0.335316,-2.18583 -2.628071,-1.724377 -5.666916,-1.144115 -7.292886,1.392563 -0.678387,1.058352 -0.767452,1.057415 -1.480779,-0.01558 -1.801006,-2.7091 -5.977412,-3.091624 -7.996786,-0.732439 -0.591791,0.691374 -0.5809,0.731618 0.412504,1.524238 2.409968,1.922875 3.14457,4.350257 2.177034,7.193683 -0.413458,1.215084 -0.441999,1.162664 1.715119,3.150021 3.782347,3.484682 4.285796,3.741632 5.631705,2.87431 z M 42.375,66.643755 c 0,-0.632432 -1.396218,-1.992948 -2.452396,-2.389687 C 39.21219,63.98721 38.660381,63.842542 36.125,63.258446 33.75122,62.71158 30.948129,61.007738 29.646968,59.320816 29.153969,58.681655 28.25,56.946317 28.25,56.639074 28.25,56.359331 27.948955,55.875 27.775075,55.875 c -0.788068,0 0.456708,3.044772 1.858378,4.545667 1.904281,2.039084 3.99545,3.040162 8.498015,4.068141 1.609079,0.367368 2.292919,0.716502 3.177119,1.622072 0.768098,0.786663 1.066413,0.935728 1.066413,0.532875 z m 17.192199,-0.526113 c 1.019639,-1.039458 1.493166,-1.225795 5.198833,-2.045789 4.23158,-0.936369 8.608968,-4.955636 8.608968,-7.904655 0,-0.803391 -0.427103,-0.319822 -0.941675,1.06617 -1.230844,3.315258 -4.446705,5.419993 -10.036856,6.568982 -1.653374,0.339831 -3.062086,1.211044 -3.593995,2.222693 -0.471596,0.89694 -0.07177,0.945354 0.764725,0.0926 z M 36.318182,53.693182 c 0.544619,-0.54462 0.424999,-0.92675 -0.565734,-1.807263 -2.912223,-2.58823 -2.486993,-6.72454 0.853646,-8.303596 3.414449,-1.613945 7.511881,1.430362 7.063214,5.247823 -0.09824,0.83587 0.206876,0.923744 0.812483,0.233995 1.622408,-1.84782 0.15875,-5.849037 -2.686527,-7.344188 -5.227838,-2.747151 -10.874918,1.66217 -9.803931,7.655049 0.272866,1.526864 1.890954,3.723759 3.187264,4.327381 0.782577,0.364404 0.765844,0.364539 1.139585,-0.0092 z M 66.1875,53.493994 c 4.167687,-2.528412 3.637575,-9.638739 -0.887363,-11.902077 -4.22174,-2.111681 -9.471068,0.81242 -9.48416,5.283083 -0.0069,2.361597 1.338541,3.346858 1.458162,1.067793 0.22624,-4.310433 5.329641,-6.370839 8.396688,-3.390011 2.132628,2.072677 1.810352,5.688365 -0.669259,7.508567 -0.75174,0.551828 -0.786379,0.80384 -0.192162,1.398057 0.471568,0.471568 0.650402,0.476057 1.378094,0.03459 z M 64.591149,47.677857 C 65.758179,46.923098 65.181611,45.125 63.772564,45.125 c -0.55514,0 -0.663181,0.04728 -1.009615,0.44185 -1.105226,1.258783 0.420994,3.021097 1.8282,2.111007 z M 41.2,47.45 c 1.305241,-1.305241 -0.631389,-3.238807 -1.979693,-1.976562 -0.935575,0.87586 -0.304782,2.401562 0.992912,2.401562 0.472221,0 0.629535,-0.06775 0.986781,-0.425 z M 29.534903,36.90625 c 1.30055,-1.568917 4.225972,-4.267072 5.652866,-5.213712 3.256967,-2.16076 7.672983,-3.849184 10.124731,-3.871099 l 1,-0.0089 0.07581,-1.375 c 0.23341,-4.233447 2.586094,-6.883342 5.492315,-6.186151 0.772973,0.185434 0.994375,0.02399 0.994375,-0.725089 0,-0.996623 -1.244601,-1.496417 -2.75,-1.104317 -2.793172,0.727515 -4.89311,3.430564 -5.089275,6.550932 -0.04012,0.638207 -0.111306,1.184082 -0.158188,1.213057 -0.04688,0.02897 -0.609247,0.167047 -1.249701,0.306828 -5.509841,1.20254 -11.116575,4.812771 -14.473673,9.31974 -1.012991,1.35996 -0.666068,2.356565 0.38074,1.09375 z M 72.5,37.109624 c 0,-1.743639 -6.743463,-7.501034 -10.8125,-9.231434 -2.62379,-1.115795 -4.230981,-1.498351 -4.648194,-1.106401 -0.674636,0.633789 -0.399136,0.933768 1.286457,1.40076 4.225123,1.170566 8.949423,4.138278 12.015976,7.548199 1.451036,1.613511 1.496354,1.654252 1.840079,1.654252 0.240994,0 0.318182,-0.06438 0.318182,-0.265376 z M 26.0625,32.247395 c 1.361518,-0.813643 3.271232,-1.653582 5.6875,-2.501502 2.082024,-0.730626 2.096685,-0.760891 1.048441,-2.164318 -0.827144,-1.10741 -0.693036,-1.073486 -2.802871,-0.709013 -0.788189,0.136159 -1.798695,0.31032 -2.24557,0.387024 -3.299249,0.566306 -3.417897,0.650635 -3.313947,2.355401 0.186933,3.065682 0.379604,3.377521 1.626447,2.632408 z m 49.968203,0.03386 c 0.385711,-0.433913 0.751166,-2.889216 0.549586,-3.692378 -0.17201,-0.68534 -1.634342,-1.140313 -5.532763,-1.721398 -2.244033,-0.334488 -2.097696,-0.374377 -2.974105,0.810704 -0.904843,1.223529 -0.912697,1.19652 0.520329,1.789244 0.670312,0.277253 1.6125,0.677985 2.09375,0.890517 0.48125,0.212532 1.49375,0.647134 2.25,0.965783 0.75625,0.318648 1.684375,0.712332 2.0625,0.874853 0.829501,0.356524 0.790085,0.353362 1.030703,0.08268 z M 51.8125,24.997292 c 1.940814,-2.028147 5.088388,-2.819507 7.26517,-1.826603 1.425603,0.650265 2.163681,0.0026 1.11941,-0.98225 -2.146508,-2.024417 -7.616893,-0.893375 -9.278859,1.918473 -0.867223,1.467237 -0.247854,2.083906 0.894279,0.89038 z M 31.593396,24.21875 c 0.0682,-0.08594 0.163328,-0.38125 0.211388,-0.65625 0.217169,-1.242644 0.967315,-2.420434 2.046683,-3.213458 1.504236,-1.10518 1.716716,-1.535823 1.127419,-2.284993 -1.063677,-1.352246 -8.919162,3.412595 -8.112144,4.92052 0.288733,0.539503 4.421543,1.618624 4.726654,1.234181 z m 39.258951,-0.138218 c 0.665584,-0.161957 1.639906,-0.390296 2.16516,-0.50742 1.636094,-0.364826 1.690678,-0.574164 0.485612,-1.862384 -2.370193,-2.533743 -6.814986,-4.603562 -7.679507,-3.576137 -0.572283,0.680119 -0.364312,1.140899 0.921638,2.041988 1.326686,0.929634 1.907258,1.751256 2.299885,3.254789 0.275547,1.055187 0.220246,1.035322 1.807212,0.649164 z"
         id="path319" /><path
         style="fill:#04dcf4"
         d="M 27.573686,89.364418 C 18.302908,88.369275 11.342249,81.30505 10.648593,72.1875 10.466059,69.788238 10.451645,27.872009 10.632883,26.5 11.03275,23.472905 11.39087,22.197901 12.446016,20.044762 15.021718,14.78876 20.641559,10.735364 26.375,9.9982685 c 0.584375,-0.075128 1.43896,-0.1898471 1.899079,-0.2549321 1.223186,-0.1730232 43.558282,-0.1571329 45.024254,0.0169 9.54991,1.133716 16.338731,7.959958 17.081092,17.175246 0.23701,2.94212 0.08568,44.974174 -0.167204,46.439518 -1.410595,8.173907 -6.811812,13.9364 -14.837221,15.829654 -1.034602,0.244071 -45.627449,0.393111 -47.801314,0.159764 z m 23.986529,-12.66897 c 0.687542,-0.402927 4.892674,-4.36676 5.140021,-4.845077 0.182491,-0.352899 0.176246,-0.427164 -0.09629,-1.145122 -1.011503,-2.664615 -0.110919,-5.617261 2.220817,-7.281153 1.182675,-0.84394 1.124469,-1.195715 -0.358893,-2.169006 -2.628071,-1.724377 -5.666916,-1.144115 -7.292886,1.392563 -0.678387,1.058352 -0.767452,1.057415 -1.480779,-0.01558 -1.801006,-2.7091 -5.977412,-3.091624 -7.996786,-0.732439 -0.579546,0.677068 -0.572257,0.714824 0.273335,1.41597 2.512204,2.083064 3.286363,4.504302 2.327991,7.280955 -0.430406,1.246999 -0.460569,1.191644 1.765759,3.24045 3.741559,3.443216 4.143378,3.652134 5.497715,2.85844 z M 42.375,66.654581 c 0,-1.270314 -2.004274,-2.487706 -5.1875,-3.150877 C 33.913539,62.82163 31.675425,61.592361 29.766591,59.42782 29.126998,58.702547 28,56.456305 28,55.906792 28,55.889306 27.907813,55.875 27.795139,55.875 c -0.807683,0 0.413733,3.020239 1.838314,4.545667 1.904281,2.039084 3.99545,3.040162 8.498015,4.068141 1.609079,0.367368 2.292919,0.716502 3.177119,1.622072 0.761899,0.780314 1.066413,0.935568 1.066413,0.543701 z m 17.192199,-0.536939 c 1.019639,-1.039458 1.493166,-1.225795 5.198833,-2.045789 3.992336,-0.883429 7.872761,-4.233596 8.512177,-7.348994 0.25876,-1.26074 -0.247833,-1.144319 -0.702545,0.161455 -1.117327,3.208568 -3.990582,5.424606 -8.408865,6.485455 -3.631716,0.871991 -4.41344,1.222306 -5.135549,2.301399 -0.775628,1.159071 -0.438529,1.439893 0.535949,0.446474 z M 52.28125,57.382886 c 0.680852,-0.327288 0.713445,-0.457375 0.279055,-1.113782 -0.971634,-1.468239 -3.406456,-1.432628 -4.472327,0.06541 -0.814706,1.145037 2.347514,1.935632 4.193272,1.048371 z M 36.318182,53.693182 c 0.544619,-0.54462 0.424999,-0.92675 -0.565734,-1.807263 -1.973091,-1.753579 -2.50924,-4.179991 -1.369626,-6.198419 2.52109,-4.465232 9.03099,-2.722276 9.22072,2.46875 0.05646,1.544685 0.194156,1.68703 0.878249,0.907891 1.622408,-1.84782 0.15875,-5.849037 -2.686527,-7.344188 -5.227838,-2.747151 -10.874918,1.66217 -9.803931,7.655049 0.272866,1.526864 1.890954,3.723759 3.187264,4.327381 0.782577,0.364404 0.765844,0.364539 1.139585,-0.0092 z M 66.1875,53.493994 c 4.167687,-2.528412 3.637575,-9.638739 -0.887363,-11.902077 -4.22174,-2.111681 -9.471068,0.81242 -9.48416,5.283083 -0.0069,2.361597 1.338541,3.346858 1.458162,1.067793 0.225794,-4.301933 5.201433,-6.351226 8.301657,-3.419163 2.237243,2.115891 1.966274,5.672819 -0.574228,7.537719 -0.75174,0.551828 -0.786379,0.80384 -0.192162,1.398057 0.471568,0.471568 0.650402,0.476057 1.378094,0.03459 z M 64.591149,47.677857 C 65.758179,46.923098 65.181611,45.125 63.772564,45.125 c -0.55514,0 -0.663181,0.04728 -1.009615,0.44185 -1.105226,1.258783 0.420994,3.021097 1.8282,2.111007 z M 41.2,47.45 c 1.305241,-1.305241 -0.631389,-3.238807 -1.979693,-1.976562 -0.935575,0.87586 -0.304782,2.401562 0.992912,2.401562 0.472221,0 0.629535,-0.06775 0.986781,-0.425 z M 29.534903,36.90625 c 1.30055,-1.568917 4.225972,-4.267072 5.652866,-5.213712 3.256967,-2.16076 7.672983,-3.849184 10.124731,-3.871099 l 1,-0.0089 0.07581,-1.375 c 0.23341,-4.233447 2.586094,-6.883342 5.492315,-6.186151 0.772973,0.185434 0.994375,0.02399 0.994375,-0.725089 0,-1.395376 -2.272085,-1.658343 -4.239966,-0.490726 -2.172294,1.288902 -3.438376,3.377405 -3.599309,5.937341 -0.04012,0.638207 -0.111306,1.184082 -0.158188,1.213057 -0.04688,0.02897 -0.609247,0.167047 -1.249701,0.306828 -4.584609,1.000605 -8.935206,3.429631 -12.440336,6.945691 -1.335312,1.339476 -2.685599,3.145169 -2.686674,3.592799 -0.0013,0.53708 0.53943,0.471717 1.034077,-0.125 z M 72.5,37.107759 c 0,-1.792711 -6.603789,-7.445948 -10.753996,-9.20606 -2.690685,-1.141126 -4.286873,-1.524314 -4.706698,-1.12991 -0.674636,0.633789 -0.399136,0.933768 1.286457,1.40076 4.225123,1.170566 8.949423,4.138278 12.015976,7.548199 1.451036,1.613511 1.496354,1.654252 1.840079,1.654252 0.241691,0 0.318182,-0.06424 0.318182,-0.267241 z M 26.0625,32.247395 c 1.361518,-0.813643 3.271232,-1.653582 5.6875,-2.501502 2.082024,-0.730626 2.096685,-0.760891 1.048441,-2.164318 -0.827144,-1.10741 -0.693036,-1.073486 -2.802871,-0.709013 -0.788189,0.136159 -1.798695,0.310615 -2.24557,0.38768 -3.384573,0.583683 -3.449561,0.634199 -3.332225,2.590136 0.164769,2.746637 0.425013,3.125916 1.644725,2.397017 z m 49.968203,0.03386 c 0.385711,-0.433913 0.751166,-2.889216 0.549586,-3.692378 -0.17201,-0.68534 -1.634342,-1.140313 -5.532763,-1.721398 -2.241221,-0.334069 -2.089991,-0.374587 -2.971013,0.796017 -0.920471,1.223019 -0.924943,1.207421 0.517237,1.803931 0.670312,0.277253 1.6125,0.677985 2.09375,0.890517 0.48125,0.212532 1.49375,0.647134 2.25,0.965783 0.75625,0.318648 1.684375,0.712332 2.0625,0.874853 0.829501,0.356524 0.790085,0.353362 1.030703,0.08268 z M 51.8125,24.997292 c 1.940814,-2.028147 5.088388,-2.819507 7.26517,-1.826603 1.425603,0.650265 2.163681,0.0026 1.11941,-0.98225 -2.146508,-2.024417 -7.616893,-0.893375 -9.278859,1.918473 -0.867223,1.467237 -0.247854,2.083906 0.894279,0.89038 z M 31.595561,24.21875 c 0.0694,-0.08594 0.164599,-0.389375 0.211564,-0.674305 0.212802,-1.291037 1.048126,-2.404152 2.92315,-3.895253 0.993052,-0.789719 0.550354,-1.988933 -0.687082,-1.861219 -2.446817,0.252534 -7.762438,4.10167 -7.176451,5.196596 0.288993,0.539989 4.418981,1.61788 4.728819,1.234181 z m 39.256786,-0.138218 c 0.665584,-0.161957 1.639906,-0.390296 2.16516,-0.50742 1.62482,-0.362312 1.686712,-0.584751 0.514211,-1.848061 C 71.924569,19.993431 67.99615,17.75 66.571099,17.75 c -1.206509,0 -1.362455,1.447804 -0.23038,2.13885 1.354212,0.826643 2.328587,2.103312 2.704784,3.543928 0.275139,1.053622 0.220047,1.033871 1.806844,0.647754 z"
         id="path318" /><path
         style="fill:#509fd0"
         d="M 27.573686,89.364418 C 18.302908,88.369275 11.342249,81.30505 10.648593,72.1875 10.466059,69.788238 10.451645,27.872009 10.632883,26.5 11.03275,23.472905 11.39087,22.197901 12.446016,20.044762 15.021718,14.78876 20.641559,10.735364 26.375,9.9982685 c 0.584375,-0.075128 1.43896,-0.1898471 1.899079,-0.2549321 1.223186,-0.1730232 43.558282,-0.1571329 45.024254,0.0169 9.54991,1.133716 16.338731,7.959958 17.081092,17.175246 0.23701,2.94212 0.08568,44.974174 -0.167204,46.439518 -1.410595,8.173907 -6.811812,13.9364 -14.837221,15.829654 -1.034602,0.244071 -45.627449,0.393111 -47.801314,0.159764 z m 23.986529,-12.66897 c 0.687542,-0.402927 4.892674,-4.36676 5.140021,-4.845077 0.182491,-0.352899 0.176246,-0.427164 -0.09629,-1.145122 -1.011503,-2.664615 -0.110919,-5.617261 2.220817,-7.281153 0.426252,-0.304168 0.80841,-0.640086 0.84924,-0.746487 0.04083,-0.1064 0.126792,-0.160973 0.191028,-0.121273 0.06424,0.0397 0.388071,-0.03371 0.719633,-0.163126 0.331562,-0.129419 1.193465,-0.358958 1.91534,-0.510086 5.484712,-1.148252 8.373408,-3.649856 8.375467,-7.253136 9.02e-4,-1.578442 1.234312,-2.407518 1.95204,-1.312127 0.310973,0.474604 0.432367,2.490836 0.160204,2.660805 -0.111367,0.06955 -0.239532,0.311689 -0.284812,0.538089 -0.601656,3.00828 -4.048539,5.775531 -8.5361,6.853014 -3.631716,0.871991 -4.41344,1.222306 -5.135549,2.301399 -0.478634,0.715253 -0.539908,1.142942 -0.149106,1.040745 0.208472,-0.05452 0.229841,-0.03435 0.112894,0.106565 -0.111884,0.134813 -0.08861,0.244547 0.103741,0.489079 0.136395,0.173397 0.285605,0.51577 0.331578,0.760828 0.290869,1.550464 2.488964,2.235493 5.632143,1.755239 6.536668,-0.998753 10.948298,-5.198568 11.435159,-10.886124 0.07062,-0.825 0.21187,-1.809375 0.313888,-2.1875 0.316056,-1.171454 0.262242,-1.454517 -0.499047,-2.625 -0.624191,-0.959695 -0.687324,-1.120594 -0.685585,-1.747266 0.0011,-0.379629 -0.119529,-1.659107 -0.26796,-2.843285 C 75.069125,47.222204 75.096834,47 75.674992,47 c 0.453723,0 0.755207,0.310285 1.757065,1.808361 C 78.534589,50.456972 79,50.647455 79,49.450086 79,47.863044 73.732842,37.855932 72.686099,37.454259 72.583745,37.414982 72.5,37.260822 72.5,37.111682 72.5,36.34996 69.415761,32.902929 67.242142,31.235354 64.298971,28.977388 62.297264,27.928858 58.998465,26.917166 L 57.43443,26.4375 57.829769,26.09231 c 0.217436,-0.189854 0.809718,-0.534028 1.316182,-0.764831 C 60.466674,24.725606 60.875,24.35045 60.875,23.738888 60.875,23.47 60.81875,23.25 60.75,23.25 c -0.06875,0 -0.125,-0.148046 -0.125,-0.32899 0,-1.183507 -3.02273,-2.146364 -5.272152,-1.679386 -1.316476,0.273299 -2.89425,1.193667 -4.080791,2.380461 l -0.415442,0.415531 0.08874,-0.487558 c 0.101742,-0.55902 0.546524,-1.494321 1.082199,-2.275683 0.202906,-0.295969 0.337729,-0.619407 0.299607,-0.71875 -0.04057,-0.10573 0.005,-0.180625 0.109867,-0.180625 0.546633,0 0.586343,-1.136101 0.057,-1.630586 -1.070457,-0.999957 -3.365864,-0.391136 -5.308238,1.407928 -1.272846,1.178935 -2.027491,2.870884 -2.150057,4.820533 -0.04012,0.638207 -0.111306,1.184082 -0.158188,1.213057 -0.04688,0.02897 -0.609247,0.167047 -1.249701,0.306828 -4.584609,1.000605 -8.935206,3.429631 -12.440336,6.945691 -1.335312,1.339476 -2.685599,3.145169 -2.686674,3.592799 -4.54e-4,0.189062 -0.05488,0.34375 -0.120957,0.34375 -0.944518,0 -6.24311,9.891011 -6.470101,12.077898 -0.103206,0.994307 0.660321,1.633569 0.849036,0.710855 C 22.910781,49.420666 24.709541,47 25.10974,47 c 0.547753,0 0.703994,1.389688 0.33026,2.9375 -0.0996,0.4125 -0.183098,1.311752 -0.185547,1.998337 l -0.0045,1.248338 -0.59375,0.862561 -0.59375,0.86256 0.01091,1.201602 c 0.01848,2.035521 0.619997,5.431564 1.054858,5.955539 0.06769,0.08156 0.202408,0.411895 0.299367,0.734067 0.193291,0.642258 0.594907,1.244541 1.341645,2.011996 0.267576,0.275 0.752389,0.802833 1.077361,1.172961 1.396867,1.590967 4.173694,3.052143 6.778359,3.566795 4.329346,0.855429 5.94703,0.485488 7.002982,-1.601482 0.505448,-0.99896 0.551979,-1.075774 0.651659,-1.075774 0.220105,0 0.06599,-0.484442 -0.351174,-1.1039 C 41.186641,64.669552 39.954087,64.080075 37.1875,63.503704 33.913539,62.82163 31.675425,61.592361 29.766591,59.42782 29.126998,58.702547 28,56.456305 28,55.906792 28,55.889306 27.91283,55.875 27.806289,55.875 c -0.142357,0 -0.163483,-0.05402 -0.07969,-0.203751 0.06271,-0.112063 0.08672,-0.446049 0.05334,-0.742191 -0.180433,-1.6008 0.783116,-2.557911 1.721813,-1.710308 0.339028,0.306128 0.393315,0.456154 0.496016,1.370775 0.447912,3.988952 2.951944,6.132721 8.439734,7.225483 0.825,0.164279 1.745052,0.385225 2.04456,0.490991 0.299508,0.105767 0.59482,0.161241 0.65625,0.123275 0.06143,-0.03797 0.11169,0.01183 0.11169,0.110665 0,0.09883 0.323437,0.44788 0.71875,0.775664 2.512204,2.083064 3.286363,4.504302 2.327991,7.280955 -0.430406,1.246999 -0.460569,1.191644 1.765759,3.24045 3.741559,3.443216 4.143378,3.652134 5.497715,2.85844 z M 31.218407,66.514609 c -0.717996,-0.473215 -1.342113,-0.95594 -1.386927,-1.072723 -0.470083,-1.225015 0.796563,-1.883268 1.71965,-0.893671 0.281253,0.301519 0.708245,0.64544 0.94887,0.76427 1.099861,0.543155 1.434255,1.30111 0.795643,1.803442 -0.489333,0.384909 -0.652548,0.337662 -2.077236,-0.601318 z m 36.238466,0.506798 c -0.457978,-0.506061 -0.143865,-1.110138 0.833079,-1.602106 0.356151,-0.179351 0.885354,-0.543939 1.176005,-0.810197 0.601337,-0.550867 1.219278,-0.650978 1.57717,-0.255511 0.474852,0.524706 0.227997,1.066678 -0.826024,1.81354 -1.507267,1.068024 -2.334961,1.324191 -2.76023,0.854274 z M 49.101345,57.824274 C 47.764798,57.43779 46.25,55.885441 46.25,54.902247 c 0,-0.127992 -0.167185,-0.45367 -0.371523,-0.72373 -1.176253,-1.554578 0.679758,-2.761523 1.930976,-1.255694 l 0.427654,0.514677 h 2.194252 2.194252 l 0.577027,-0.59375 c 1.291868,-1.329308 2.966534,-0.239562 1.859862,1.210257 -0.240625,0.315236 -0.4375,0.658914 -0.4375,0.76373 0,1.884213 -3.262965,3.660252 -5.523655,3.006537 z m 3.179905,-0.441388 c 0.680852,-0.327288 0.713445,-0.457375 0.279055,-1.113782 -0.971634,-1.468239 -3.406456,-1.432628 -4.472327,0.06541 -0.814706,1.145037 2.347514,1.935632 4.193272,1.048371 z M 35.915926,56.075227 C 33.261045,55.088569 30.576266,51.374714 31.75,50.3125 c 0.1375,-0.124436 0.252469,-0.315966 0.255487,-0.425623 0.003,-0.109658 0.07894,0.0063 0.168723,0.2576 0.596545,1.670019 3.149371,4.211073 3.816415,3.798817 0.0595,-0.03677 0.136334,0.0065 0.170745,0.09619 0.06309,0.164407 1.138684,0.515033 1.98232,0.646205 0.866474,0.134722 0.926793,0.632028 0.15848,1.306616 -0.545037,0.478548 -1.255292,0.503231 -2.386244,0.08292 z m 27.100668,-0.145022 c -0.661762,-0.841294 -0.55044,-1.058194 0.72608,-1.414702 1.171817,-0.327266 1.4,-0.522421 1.061471,-0.907825 l -0.241645,-0.275104 0.387385,0.280773 c 0.838104,0.607449 3.019067,-1.338188 3.700086,-3.300847 0.119277,-0.34375 0.218704,-0.511968 0.220948,-0.373818 0.0022,0.13815 0.116581,0.321439 0.254081,0.407309 1.064631,0.664873 -1.18277,4.323015 -3.323377,5.40953 -1.195395,0.606751 -2.386404,0.681453 -2.785029,0.174684 z M 37.625,52.937642 c -0.478131,-0.115515 -0.735084,-0.12665 -0.84375,-0.03656 -0.11294,0.09363 -0.15625,0.07836 -0.15625,-0.05507 0,-0.101534 -0.392649,-0.533572 -0.872552,-0.960086 -1.973091,-1.753579 -2.50924,-4.179991 -1.369626,-6.198419 2.530867,-4.482548 8.977214,-2.737762 9.236588,2.5 l 0.06809,1.375 -0.4375,0.742586 c -1.301392,2.208905 -3.370451,3.177245 -5.625,2.632556 z M 41.2,47.45 c 1.305241,-1.305241 -0.631389,-3.238807 -1.979693,-1.976562 -0.935575,0.87586 -0.304782,2.401562 0.992912,2.401562 0.472221,0 0.629535,-0.06775 0.986781,-0.425 z m 19.925,5.500935 c -1.541824,-0.343378 -2.881845,-1.403256 -3.532743,-2.794193 -0.201132,-0.42981 -0.419403,-0.814667 -0.485046,-0.855236 -0.07365,-0.04552 -0.07498,-0.129327 -0.0035,-0.218884 0.06374,-0.07982 0.141449,-0.60747 0.172678,-1.172563 0.236328,-4.276443 5.211729,-6.306581 8.299359,-3.386429 2.237243,2.115891 1.966274,5.672819 -0.574228,7.537719 -0.344612,0.252969 -0.626568,0.542847 -0.626568,0.644174 0,0.101327 -0.04869,0.154142 -0.108191,0.117366 -0.05951,-0.03678 -0.495442,0.01518 -0.96875,0.115452 -1.01355,0.214731 -1.259046,0.216153 -2.173059,0.01259 z m 3.466149,-5.273078 C 65.758179,46.923098 65.181611,45.125 63.772564,45.125 c -0.55514,0 -0.663181,0.04728 -1.009615,0.44185 -1.105226,1.258783 0.420994,3.021097 1.8282,2.111007 z M 58.1875,38.632556 C 57.546138,38.47546 55.892153,37.65734 55.40635,37.2569 54.836186,36.786923 54.392529,36.768988 53.990539,37.199665 52.500123,38.79644 49.730954,37.69973 48.445341,35.003526 47.576822,33.18206 47.972184,31.910919 48.921284,33.473306 50.684708,36.376214 53.5,36.89361 53.5,34.314784 c 0,-0.839773 0.218761,-0.83473 1.277356,0.02945 1.291655,1.054438 2.017608,1.521766 3.094116,1.991818 4.57689,1.998478 3.900377,-4.391491 -0.715222,-6.755593 -1.280238,-0.655735 -1.438653,-0.937727 -0.9067,-1.613995 0.137252,-0.174488 0.302436,-0.449261 0.367076,-0.610607 l 0.117527,-0.293357 0.0079,0.287628 c 0.0092,0.333738 0.364677,0.510983 1.686205,0.840748 0.901179,0.224873 2.287494,0.805774 1.928055,0.807903 -0.147765,8.75e-4 -0.226307,0.151706 -0.277277,0.532471 -0.03911,0.292187 -0.103998,0.75625 -0.14419,1.03125 -0.06718,0.459631 -0.02604,0.555507 0.509492,1.1875 3.174544,3.74633 1.818791,7.880854 -2.256862,6.882556 z M 29.905241,32.176324 c 0.480227,-0.453023 1.373005,-1.218514 1.98395,-1.701093 C 32.500136,29.992652 33,29.526117 33,29.438487 c 0,-0.08763 0.1125,-0.188749 0.25,-0.224706 0.592048,-0.154824 -0.728589,-2.564453 -1.426771,-2.603281 -0.227294,-0.01264 -0.23119,-0.02212 -0.03038,-0.0739 0.168583,-0.04347 0.209525,-0.131757 0.152691,-0.32925 -0.04271,-0.148418 -0.141104,-0.570305 -0.218649,-0.937527 -0.07755,-0.367221 -0.219104,-0.69765 -0.314575,-0.734285 -0.134864,-0.05175 -0.119834,-0.104256 0.06738,-0.235386 0.143939,-0.10082 0.273746,-0.3874 0.322384,-0.711741 0.195755,-1.305387 1.033669,-2.43261 2.928195,-3.93922 0.993052,-0.789719 0.550354,-1.988933 -0.687082,-1.861219 -1.747023,0.180309 -5.448355,2.428423 -6.807282,4.134606 -0.565298,0.709751 -0.591366,0.877407 -0.191766,1.23334 0.278929,0.248449 0.285941,0.291606 0.135549,0.834291 -0.461632,1.665791 -0.594851,3.255772 -0.273444,3.263591 0.325904,0.0079 -0.242443,0.212707 -1.19541,0.430712 -1.331831,0.304677 -1.398062,0.415613 -1.293065,2.165865 0.177867,2.964988 0.346658,3.136866 2.105124,2.143629 0.943082,-0.532681 1.375225,-0.699672 1.323991,-0.511621 C 27.811817,31.611118 28.831323,33 28.960891,33 c 0.03917,0 0.464123,-0.370654 0.94435,-0.823676 z m 42.753585,0.25339 c 0.222021,-0.313657 0.431799,-0.67939 0.466174,-0.812741 0.0593,-0.23005 0.104076,-0.222581 0.875,0.145956 2.191137,1.047464 2.418518,0.875568 2.590272,-1.958198 0.09794,-1.615896 -0.207625,-1.957257 -2.072267,-2.315028 -0.585081,-0.11226 -0.741582,-0.182052 -0.59375,-0.264783 0.528356,-0.295683 0.01264,-3.367599 -0.60363,-3.595572 -0.205891,-0.07616 -0.172998,-0.10577 0.194008,-0.174621 1.078321,-0.202294 1.082074,-0.582205 0.01708,-1.729676 C 71.924569,19.993431 67.99615,17.75 66.571099,17.75 c -1.206509,0 -1.362455,1.447804 -0.23038,2.13885 1.357961,0.828931 2.328498,2.102971 2.707441,3.554103 0.106547,0.408012 0.248897,0.760233 0.316334,0.782712 0.07509,0.02503 0.08055,0.146665 0.01407,0.313853 -0.259891,0.65361 -0.421484,1.856701 -0.262574,1.954912 0.110648,0.06838 0.08606,0.113952 -0.08572,0.158874 C 68.519739,26.78681 67.076533,29 67.5,29 c 0.06875,0 0.125,0.07971 0.125,0.177125 0,0.09742 0.488239,0.558369 1.084975,1.024334 0.596736,0.465965 1.551087,1.286259 2.12078,1.822875 1.209986,1.139733 1.294929,1.15857 1.828071,0.40538 z"
         id="path317" /><path
         style="fill:#566496"
         d="M 28.375,89.42259 C 28.203125,89.396786 27.55625,89.313193 26.9375,89.236829 18.371573,88.179645 11.555631,81.266581 10.743917,72.8125 10.502115,70.294104 10.653868,25.795588 10.908464,24.5625 12.386277,17.404991 18.064286,11.740464 25.318932,10.186248 27.290804,9.7637999 29.097357,9.7358305 51.8125,9.7760703 l 22.5,0.039859 1.3125,0.2885831 c 7.735899,1.700915 13.81403,8.337892 14.629616,15.974716 0.08893,0.832665 0.118264,8.66381 0.09032,24.108272 l -0.04139,22.875 -0.284382,1.25 C 88.244964,82.110987 83.03108,87.401296 75.394821,89.151201 l -1.207321,0.276667 -22.75,0.02082 C 38.925,89.460139 28.546875,89.448395 28.375,89.42259 Z m 5.375,-9.616578 c 0.145946,-3.225959 2.22226,-3.174868 2.375,0.05844 L 36.1875,81.1875 H 39 41.8125 l 0.07484,-1.316625 c 0.08027,-1.412273 0.176551,-1.706333 0.691232,-2.111181 0.948084,-0.745763 1.589193,0.0016 1.671433,1.948317 l 0.0625,1.479489 5.992523,0.03248 c 3.295888,0.01786 6.037913,-0.01291 6.093388,-0.06839 0.05548,-0.05548 0.138237,-0.716965 0.183914,-1.469977 0.19005,-3.133099 2.149396,-3.021241 2.292675,0.130888 l 0.0625,1.375 h 2.875 2.875 l 0.0625,-1.416359 0.0625,-1.416358 0.466914,-0.427392 C 65.866394,77.390098 66.164596,77.389596 66.7,77.925 l 0.425,0.425 v 1.391423 c 0,1.643027 -0.02577,1.616099 1.355999,1.417035 2.319242,-0.334121 4.716287,-2.121918 5.771966,-4.304928 1.154354,-2.387059 0.978947,-4.930464 -0.279254,-4.049186 C 73.820075,72.911955 73.601277,73 73.487492,73 c -0.113784,0 -0.280318,0.08849 -0.370074,0.196636 -0.08976,0.10815 -0.391957,0.312458 -0.671556,0.454018 -0.279599,0.141561 -0.726111,0.452832 -0.992249,0.691714 -0.266137,0.238882 -0.913012,0.629794 -1.4375,0.868693 -0.524487,0.238899 -1.037988,0.486425 -1.141113,0.550058 -2.783594,1.717601 -7.543546,1.094242 -10.106525,-1.323542 -1.113029,-1.049976 -1.01042,-1.077188 -2.998687,0.795257 -5.10802,4.810464 -5.582794,4.894018 -9.017109,1.586882 -3.775663,-3.635842 -3.481207,-3.488468 -4.679563,-2.342092 -1.835912,1.756278 -3.750778,2.439018 -6.010616,2.143067 C 31.271606,75.99327 30.293547,75.567353 27.113475,72.723644 25.873135,71.614498 25.875,71.613903 25.875,73.118847 c 0,4.298821 3.505467,8.246638 7.1875,8.094481 l 0.625,-0.02583 z m 17.701693,-3.008625 c 0.657004,-0.311769 5.098308,-4.439548 5.299584,-4.92547 0.153615,-0.370859 0.140598,-0.490528 -0.13434,-1.235033 -1.474062,-3.991611 0.948427,-7.621839 5.758063,-8.62876 5.532672,-1.158292 8.36938,-3.546542 8.592257,-7.233897 0.10097,-1.670494 0.761047,-2.275463 1.675133,-1.535281 0.330314,0.267472 0.512321,2.138817 0.260822,2.6817 -0.06799,0.146769 -0.273064,0.667496 -0.455713,1.15717 -1.29857,3.481415 -4.428535,5.546561 -10.197499,6.728295 -1.860382,0.381087 -3.252256,1.378628 -3.616531,2.59193 -0.08908,0.296703 -0.218899,0.661519 -0.288485,0.810705 -0.223453,0.479058 -0.05205,2.406667 0.269224,3.027758 1.671247,3.230847 6.336223,3.91834 11.290354,1.663897 1.152133,-0.524293 2.080703,-1.26659 4.318106,-3.451885 2.039172,-1.991681 2.529995,-2.248323 1.92727,-1.007734 -1.113336,2.291581 1.143714,2.648928 2.411558,0.381811 2.602278,-4.653308 1.910472,-10.341586 -1.923445,-15.815259 -1.013853,-1.447475 -1.280062,-2.04284 -1.024689,-2.291666 0.124827,-0.121626 0.228452,-0.06866 0.503201,0.257189 1.616211,1.916825 3.57996,0.999432 2.808946,-1.312239 -0.845943,-2.536324 -2.88635,-6.488624 -4.912825,-9.516216 C 73.352583,38.158198 72.601178,37.012855 72.342895,36.599195 71.336388,34.987196 69.341346,32.876764 67.25,31.211735 66.192509,30.369811 63.791561,28.75 63.601119,28.75 c -0.06876,0 -0.274335,-0.102659 -0.456823,-0.228131 -0.508185,-0.34941 -2.309761,-1.078977 -3.769296,-1.526417 -2.017497,-0.618491 -2.022245,-0.764918 -0.05452,-1.681564 1.702244,-0.792974 2.007834,-1.364336 1.363191,-2.548759 -1.229215,-2.258472 -5.547674,-2.265827 -8.485048,-0.01445 C 50.836181,23.794929 50.785703,23.46784 52,21.463656 53.352708,19.231027 53.067434,18.25 51.065499,18.25 48.064529,18.25 45,21.729056 45,25.135957 c 0,1.021652 -0.01215,1.032694 -1.491528,1.355573 -5.45827,1.191285 -11.163498,4.85563 -14.235685,9.143274 -4.094288,5.714122 -7.409976,11.932904 -7.447883,13.968973 -0.02962,1.590892 1.911027,1.893458 2.859548,0.445832 0.221353,-0.337827 0.537487,-0.393181 0.645026,-0.112941 0.09075,0.236493 -0.285423,0.963105 -1.19763,2.313332 -3.906759,5.782686 -4.368896,13.144346 -1.045046,16.647168 1.014976,1.069627 2.343996,0.366417 1.928495,-1.020405 -0.324665,-1.083632 0.04966,-0.999297 1.330433,0.299747 4.352918,4.415006 9.748433,6.182494 13.539176,4.435228 3.03372,-1.398332 3.782872,-5.512425 1.387693,-7.620745 -0.785666,-0.691572 -1.361149,-0.89003 -5.022599,-1.732067 -2.381621,-0.54771 -5.118632,-2.183763 -6.51361,-3.893521 -1.37712,-1.687871 -2.253303,-4.744943 -1.678513,-5.856465 0.440593,-0.852012 1.594501,-0.589022 1.74109,0.396816 0.03327,0.223709 0.121666,0.828619 0.196447,1.344244 0.5033,3.470307 3.262788,5.617922 8.592567,6.6873 4.653878,0.933763 7.147015,4.83808 5.627431,8.8127 -0.390392,1.02111 -0.370584,1.070375 0.929806,2.3125 4.170648,3.983779 4.887419,4.408273 6.306475,3.734887 z M 52.875,56.87553 c 0,-0.297941 -0.663213,-1.100971 -1.122441,-1.359072 -1.209832,-0.679964 -2.896296,-0.286858 -3.691374,0.860439 -0.489542,0.70641 -1.495444,-0.133467 -1.743503,-1.455736 -0.04875,-0.259861 -0.224547,-0.633996 -0.390659,-0.831409 -0.490079,-0.582425 -0.394753,-1.34574 0.206917,-1.656875 0.585866,-0.302963 0.859078,-0.223906 1.509413,0.436769 0.747259,0.759139 0.948915,0.804402 3.25576,0.730781 l 1.754871,-0.05601 0.544595,-0.584711 c 1.244662,-1.336345 2.862925,-0.263874 1.737708,1.15163 C 54.696329,54.413204 54.5,54.76756 54.5,54.898799 c 0,0.271592 -0.29044,0.871131 -0.675616,1.394635 C 53.537001,56.684024 52.875,57.089917 52.875,56.87553 Z M 37.393774,52.803087 c -2.165665,-0.611518 -3.908345,-3.423569 -3.503567,-5.65348 0.831498,-4.580701 6.924444,-5.409777 9.127802,-1.242033 2.011416,3.804674 -1.467037,8.069381 -5.624235,6.895513 z m 3.677462,-5.132806 c 0.895186,-0.586548 0.750594,-1.995444 -0.253697,-2.472012 -1.099637,-0.521812 -2.189783,0.260749 -2.029362,1.456776 0.147473,1.099493 1.343058,1.631149 2.283059,1.015236 z m 19.851702,5.153246 c -2.221941,-0.53923 -3.773831,-2.565269 -3.633639,-4.743824 0.282221,-4.385683 5.122974,-6.470135 8.276067,-3.563716 3.621147,3.337858 0.188789,9.480001 -4.642428,8.30754 z M 64.4402,47.802841 c 0.880971,-0.418048 1.048456,-1.670336 0.312169,-2.334091 -1.059484,-0.955114 -2.846385,0.10644 -2.356473,1.399923 0.357634,0.944237 1.206066,1.331938 2.044304,0.934168 z M 27.389601,35.09375 c 0.912618,-1.180754 2.810233,-3.129137 3.946583,-4.052168 2.643099,-2.146928 2.570435,-2.003948 1.648259,-3.243247 -2.098016,-2.819492 -1.507524,-5.862539 1.533475,-7.902621 1.483998,-0.995554 0.77049,-2.512047 -0.970151,-2.061963 -2.176186,0.562704 -5.753289,2.981909 -6.705068,4.534656 -0.149718,0.244251 -0.44276,0.670044 -0.651206,0.946207 -0.558118,0.739431 -1.294006,2.393908 -1.44547,3.249809 -0.07281,0.411443 -0.194733,1.042023 -0.270939,1.40129 -0.326768,1.54053 -0.06449,3.510905 0.684037,5.138844 0.844949,1.837644 1.273505,2.520443 1.581943,2.520443 0.132173,0 0.420437,-0.236132 0.648537,-0.53125 z m 48.032885,-1.375 c 3.014606,-6.133066 -0.08889,-12.705362 -7.364319,-15.595471 -2.449371,-0.972994 -3.673431,0.489402 -1.583855,1.892247 1.40835,0.945501 2.171448,2.001221 2.576553,3.564574 0.191928,0.740674 0.177474,1.03864 -0.12345,2.5449 -0.04807,0.240625 -0.448262,0.934983 -0.889309,1.543018 -0.990555,1.365596 -1.013088,1.274997 0.64992,2.613121 1.707658,1.374051 3.611319,3.245284 4.514512,4.437611 1.027914,1.356975 1.070944,1.337592 2.219948,-1 z"
         id="path316" /><path
         style="fill:#305992"
         d="M 28.375,89.294121 C 18.749344,88.310272 12.190717,82.241189 10.860788,73.087194 10.662552,71.722727 10.567793,28.308931 10.759647,26.75 11.365154,21.829899 12.926371,18.434219 15.992795,15.367795 19.218688,12.141902 22.757406,10.574861 28.381487,9.8817431 29.873364,9.6978827 71.535257,9.6991648 73,9.8831162 75.311962,10.173467 76.411689,10.396091 77.647674,10.823971 84.797322,13.299079 89.563427,19.422795 90.237521,27 c 0.158118,1.777334 0.169884,39.626982 0.01348,43.35822 -0.416356,9.932676 -5.68942,16.451627 -15.143605,18.721641 -0.847479,0.203485 -44.863414,0.405291 -46.732394,0.21426 z m 5.271407,-8.125994 c 0.193185,-0.17483 0.228593,-0.40569 0.228593,-1.49041 0,-1.198488 0.02144,-1.309019 0.323612,-1.668126 C 35.056998,76.989456 36,77.893934 36,79.737388 36,81.459853 35.844555,81.375 39,81.375 c 3.13352,0 2.945358,0.107074 3.028801,-1.723548 0.129671,-2.844814 2.096199,-2.88624 2.096199,-0.04416 0,1.957451 -0.678018,1.767706 6.316568,1.767706 6.841499,0 6.140827,0.189682 6.256022,-1.693595 0.09415,-1.539207 0.361925,-2.056405 1.064685,-2.056405 0.701587,0 0.987725,0.588368 0.987725,2.030998 0,1.818805 -0.176543,1.719002 3.040781,1.719002 3.254627,0 3.084219,0.09225 3.084219,-1.669673 0,-1.819822 0.836923,-2.64261 1.77441,-1.744441 C 66.99059,78.287757 67,78.332531 67,79.629013 c 0,1.747791 0.09038,1.853634 1.408918,1.650048 3.589526,-0.554232 6.716082,-4.052352 6.716082,-7.514231 0,-1.125154 -0.433121,-1.562909 -1.069859,-1.081305 -0.133452,0.100938 -0.336763,0.185313 -0.4518,0.1875 -0.115038,0.0022 -0.368163,0.136686 -0.5625,0.298888 -0.194338,0.162203 -0.550216,0.394868 -0.790841,0.517035 -0.240625,0.122166 -0.65556,0.417619 -0.922078,0.65656 -0.266518,0.238942 -0.829018,0.588511 -1.25,0.77682 -1.221203,0.546255 -1.379592,0.621071 -1.577922,0.745347 -0.812014,0.508815 -4.408035,0.908313 -5.767883,0.64078 -1.212995,-0.238643 -2.803362,-1.104479 -3.905134,-2.126056 -1.207834,-1.119919 -1.027996,-1.165522 -3.110664,0.7888 -5.254184,4.930394 -5.387094,4.945228 -9.441818,1.05379 C 43.112775,73.188588 43.27311,73.253576 41.95767,74.473268 40.048704,76.243285 38.354958,76.812284 35.9375,76.495691 31.160381,75.870074 30.430218,75.550609 27.14858,72.650312 25.850854,71.503387 25.75,71.538278 25.75,73.134153 c 0,1.879582 0.610329,3.683392 1.762753,5.209766 1.395577,1.848428 5.250533,3.623422 6.133654,2.824208 z m 17.67089,-4.152917 c 0.485728,-0.220638 4.326016,-3.621095 5.152389,-4.562282 0.556163,-0.633434 0.600885,-0.932374 0.277177,-1.85277 -0.972824,-2.766031 -0.116496,-5.502968 2.214135,-7.076661 0.425424,-0.287256 0.808958,-0.579659 0.852298,-0.649784 0.144382,-0.233616 0.983219,-0.514313 2.624204,-0.878129 5.603857,-1.242406 8.306676,-3.530634 8.529757,-7.221357 0.10097,-1.670494 0.761047,-2.275463 1.675133,-1.535281 0.371935,0.301175 0.523042,2.235932 0.20398,2.611724 -0.09892,0.116506 -0.336786,0.651223 -0.528593,1.188258 -1.188542,3.327757 -4.109309,5.309321 -9.630277,6.533561 -2.261723,0.501523 -3.906145,1.552535 -4.123468,2.635462 -0.03913,0.195002 -0.139408,0.523299 -0.222834,0.729549 -1.120237,2.769514 1.614984,6.146182 5.181314,6.396404 3.864296,0.271128 6.964811,-1.117965 10.760721,-4.821021 1.804319,-1.760182 2.172516,-2.008249 1.867371,-1.258112 -0.08283,0.203626 -0.218341,0.536739 -0.30113,0.740251 -0.298154,0.732922 0.449017,1.645402 1.194174,1.458379 1.45737,-0.365777 3.206352,-4.390996 3.206352,-7.379304 0,-3.157962 -1.375094,-7.041702 -3.603373,-10.177166 -1.006124,-1.415741 -1.142401,-1.645276 -1.144784,-1.928181 -0.0028,-0.328167 0.319996,-0.263507 0.623952,0.125 1.51338,1.93435 3.571493,0.880833 2.799714,-1.433132 -0.844165,-2.530993 -3.001361,-6.70178 -5.014308,-9.694811 C 73.274348,38.018876 72.721256,37.116498 72.682109,36.960523 72.03772,34.393072 64.266566,28.302923 60,27.021724 c -0.240625,-0.07226 -0.850482,-0.251251 -1.355237,-0.397764 -1.144946,-0.332339 -1.056964,-0.502919 0.675716,-1.310072 1.427993,-0.665217 1.733097,-1.01194 1.634272,-1.857202 C 60.605509,20.469583 55.221014,20.054288 51.982652,22.764687 51.376149,23.27231 51.125,23.36502 51.125,23.081283 c 0,-0.202249 1.364775,-2.500497 1.520999,-2.561326 0.883257,-0.343916 0.259284,-2.069356 -0.84893,-2.3475 -2.987076,-0.749708 -6.640979,2.821178 -6.908812,6.751843 l -0.07576,1.111799 -1.625,0.406795 c -4.040707,1.01153 -6.812101,2.382998 -9.8125,4.855873 -2.134369,1.759108 -4.812369,4.708412 -5.063281,5.576233 -0.04969,0.171875 -0.299795,0.59375 -0.555781,0.9375 -2.494706,3.350018 -5.899888,10.119364 -5.931034,11.790624 -0.03042,1.632223 1.859162,1.992411 2.871338,0.547329 0.106113,-0.151499 0.308342,-0.275453 0.449397,-0.275453 0.401944,0 0.221511,0.433644 -0.815224,1.959274 -4.201426,6.182701 -4.755688,12.754218 -1.432101,16.979473 0.968802,1.231632 2.694295,0.540622 2.222175,-0.889916 -0.318745,-0.965805 -0.04276,-0.893279 1.164518,0.306023 6.579532,6.536074 15.551649,6.893478 16.514028,0.657836 0.443033,-2.870586 -1.195238,-4.53567 -5.423882,-5.512655 -4.661947,-1.077094 -7.418559,-2.985319 -8.612336,-5.961766 -0.215246,-0.536673 -0.503216,-1.200769 -0.639934,-1.475769 -0.457768,-0.920774 -0.26583,-2.634965 0.320217,-2.859852 0.633383,-0.243052 1.252849,0.135293 1.355867,0.828108 0.03327,0.223709 0.121666,0.828619 0.196447,1.344244 0.501527,3.458083 3.253735,5.609244 8.547977,6.681207 2.192529,0.443936 2.180398,0.437487 4.104881,2.182552 1.685036,1.527941 2.27707,3.919875 1.540824,6.225229 -0.518797,1.624471 -0.5759,1.537049 3.248404,4.973116 2.064992,1.855356 2.817458,2.185664 3.879797,1.703106 z m 1.435027,-20.699333 c -1.133788,-1.647903 -3.127295,-1.743949 -4.590448,-0.221164 -0.659975,0.686874 -0.666336,0.689998 -0.926163,0.454858 -0.362662,-0.328205 -0.818374,-1.151297 -0.92714,-1.674571 -0.05002,-0.240625 -0.224281,-0.596503 -0.387255,-0.790841 -0.48455,-0.577796 -0.386198,-1.34162 0.212622,-1.651282 0.585866,-0.302963 0.859078,-0.223906 1.509413,0.436769 0.747259,0.759139 0.948915,0.804402 3.25576,0.730781 l 1.754871,-0.05601 0.544595,-0.584711 c 1.244662,-1.336345 2.862925,-0.263874 1.737708,1.15163 C 54.696329,54.413204 54.5,54.76756 54.5,54.898799 c 0,0.450989 -0.818481,1.754799 -1.191438,1.897916 -0.113297,0.04348 -0.316147,-0.131877 -0.556238,-0.480838 z M 37.47812,52.823984 c -2.883892,-0.830556 -4.364772,-4.732651 -2.783786,-7.335233 1.942005,-3.196886 6.639924,-2.842789 8.287678,0.624668 1.815501,3.820453 -1.500554,7.863519 -5.503892,6.710565 z m 3.170096,-4.828338 c 1.374047,-0.38163 1.516532,-2.266191 0.221954,-2.935643 -1.462431,-0.756253 -2.961946,1.068975 -1.907617,2.321975 0.529729,0.629547 1.005228,0.802653 1.685663,0.613668 z m 20.274722,4.827881 c -2.050365,-0.497592 -3.61004,-2.358309 -3.562287,-4.249866 0.108238,-4.28742 4.099352,-6.646081 7.512769,-4.439882 4.370064,2.824508 1.141821,9.92557 -3.950482,8.689748 z m 3.588797,-4.892096 c 0.931636,-0.481767 1.133081,-1.632057 0.423384,-2.417606 -1.014437,-1.122861 -2.689508,-0.516001 -2.68234,0.971782 0.0058,1.20249 1.222989,1.981544 2.258956,1.445824 z M 27.161932,35.453413 c 0.151562,-0.163122 0.613068,-0.706491 1.025568,-1.207485 1.158859,-1.407471 2.617727,-2.826262 4.157902,-4.043681 0.929795,-0.73495 1.404598,-1.19266 1.404598,-1.354035 0,-0.220125 -0.892367,-1.570265 -1.384549,-2.094806 -0.347462,-0.370306 -0.812937,-2.198666 -0.620952,-2.439062 0.05571,-0.06976 0.163686,-0.4229 0.239936,-0.784747 0.295091,-1.400374 1.06648,-2.482275 2.416253,-3.388883 1.703632,-1.144285 1.117578,-2.958316 -0.79438,-2.458866 -2.33518,0.610007 -6.158369,3.218035 -6.938746,4.733339 -0.112539,0.218522 -0.332671,0.566063 -0.489183,0.772313 -0.507864,0.669256 -1.424513,2.730605 -1.556394,3.5 -0.07071,0.4125 -0.183328,0.98987 -0.250271,1.283044 -0.26367,1.154738 -0.04968,3.914662 0.349433,4.506875 0.124204,0.184295 0.495743,0.88838 0.825642,1.564634 0.84374,1.729565 1.106308,1.959005 1.615143,1.41136 z m 47.459606,-0.07355 c 0.144958,-0.203576 0.500351,-0.865318 0.789761,-1.470537 0.289411,-0.60522 0.650545,-1.299519 0.80252,-1.542889 1.133504,-1.81516 0.483425,-5.996559 -1.422712,-9.151078 -2.00583,-3.319503 -7.859595,-6.670987 -9.092495,-5.205768 -0.627789,0.746084 -0.32282,1.432202 1.051388,2.365409 2.528797,1.717273 3.087174,4.741236 1.306427,7.075118 -1.192231,1.562561 -1.272666,1.328299 1.110167,3.233284 1.268631,1.014223 3.07033,2.862318 3.964506,4.066598 0.832435,1.121125 1.069339,1.221242 1.490438,0.629863 z"
         id="path315" /><path
         style="display:inline;fill:url(#linearGradient322)"
         d="M 27.5,89.17658 C 18.357113,87.950749 11.77316,81.443947 10.881257,72.752574 10.701728,71.003116 10.700078,27.833159 10.879476,26.151323 11.750292,17.987483 17.723539,11.77375 26.25,10.161976 28.066186,9.8186581 73.148408,9.8144875 75,10.157466 c 8.031424,1.487694 14.328353,8.201395 15.123224,16.124177 0.250537,2.497199 0.102313,46.261512 -0.160949,47.52145 -0.541521,2.591649 -1.572376,5.152425 -2.911693,7.233017 -0.595376,0.924901 -2.284037,3.086728 -2.414952,3.091626 -0.04022,0.0015 -0.398423,0.307794 -0.796003,0.680642 -1.994208,1.870153 -5.186866,3.424088 -8.652127,4.211174 l -1.25,0.28392 -22.5625,0.02454 C 32.577996,89.348458 28.593455,89.323185 27.5,89.17658 Z m 6.271407,-7.883453 C 33.963524,81.119263 34,80.888895 34,79.849419 c 0,-1.333863 0.171188,-1.892885 0.623629,-2.036484 0.80162,-0.254424 1.251371,0.488462 1.251371,2.066977 0,1.707271 -0.166999,1.620088 3.103281,1.620088 3.252544,0 3.145274,0.04642 3.149701,-1.363123 0.0064,-2.048262 0.689389,-2.955869 1.5652,-2.080059 C 43.980766,78.344403 44,78.447612 44,79.703226 44,81.696265 43.296376,81.5 50.441568,81.5 c 6.950334,0 6.258084,0.169959 6.368379,-1.563549 0.104098,-1.636103 0.138028,-1.7716 0.503627,-2.011149 0.8332,-0.545934 1.311426,0.147796 1.311426,1.902398 0,1.770727 -0.186329,1.6723 3.165781,1.6723 C 65.197351,81.5 65,81.605556 65,79.783511 c 0,-1.273206 0.0083,-1.311026 0.365385,-1.668126 0.903694,-0.903695 1.509615,-0.266377 1.509615,1.587841 0,1.521637 0.124771,1.796774 0.814812,1.796774 2.403033,0 5.530323,-2.082636 6.742884,-4.49046 1.320701,-2.622563 0.997466,-5.566491 -0.487837,-4.443065 C 73.811406,72.667414 73.607356,72.75 73.491414,72.75 c -0.115941,0 -0.28424,0.08849 -0.373996,0.196636 -0.08976,0.10815 -0.391957,0.312458 -0.671556,0.454018 -0.279599,0.141561 -0.726111,0.452832 -0.992249,0.691714 -0.266137,0.238882 -0.913012,0.629794 -1.4375,0.868693 -0.524487,0.238899 -1.037988,0.486425 -1.141113,0.550058 -2.783594,1.717601 -7.543546,1.094242 -10.106525,-1.323542 -1.113029,-1.049976 -1.01042,-1.077188 -2.998687,0.795257 -5.10802,4.810464 -5.582794,4.894018 -9.017109,1.586882 -3.775663,-3.635842 -3.481207,-3.488468 -4.679563,-2.342092 -1.835912,1.756278 -3.750778,2.439018 -6.010616,2.143067 -4.795312,-0.627999 -5.767852,-1.052113 -8.960859,-3.907732 -1.304091,-1.166295 -1.402938,-1.13391 -1.452851,0.475989 -0.106731,3.442511 1.616411,6.251998 4.821779,7.861643 1.314534,0.660122 2.860721,0.890837 3.300838,0.492536 z M 51.47235,76.965229 c 0.542508,-0.281706 1.032905,-0.699535 3.684834,-3.139566 1.978296,-1.820223 2.067136,-2.011006 1.579742,-3.392495 -1.369231,-3.881005 0.918307,-7.214229 5.662181,-8.250493 5.715317,-1.248468 8.433335,-3.536073 8.71592,-7.335707 0.09773,-1.314055 0.293871,-1.721968 0.827998,-1.721968 1.534591,0 1.045421,3.517916 -0.857991,6.17033 -1.255542,1.749605 -4.470169,3.3737 -8.427232,4.25761 -2.413375,0.539089 -3.69929,1.416737 -4.226405,2.88456 -0.123445,0.34375 -0.277728,0.695109 -0.342851,0.780797 -0.230898,0.303814 -0.03593,2.418856 0.278955,3.026129 1.777215,3.427469 6.484622,4.205154 11.537061,1.905975 1.142503,-0.519911 2.076725,-1.263824 4.251688,-3.385583 1.701524,-1.6599 2.117011,-1.945836 1.65625,-1.139818 -0.804864,1.407962 0.801953,2.590975 2.008542,1.478781 C 81.566727,65.651129 81.107878,58.037552 76.78125,51.850772 75.809571,50.461337 75.583672,50 75.875,50 75.94375,50 76,50.054942 76,50.122093 76,50.425392 77.27411,51.25 77.742739,51.25 c 1.244181,0 1.839807,-1.046432 1.391089,-2.443951 C 78.278623,46.142537 76.263669,42.195598 74.137684,39.019487 73.477583,38.03333 72.819873,37.02671 72.676107,36.782554 71.875649,35.423144 69.046798,32.440244 67.05264,30.852852 66.057283,30.060527 63.912694,28.625 63.724366,28.625 c -0.0678,0 -0.272582,-0.102659 -0.45507,-0.228131 -0.486001,-0.334157 -2.274061,-1.064151 -3.706796,-1.513338 -0.6875,-0.215544 -1.326648,-0.418805 -1.420328,-0.451693 -0.314834,-0.110527 0.11756,-0.447183 1.232828,-0.959863 1.836264,-0.844117 2.142512,-1.376178 1.517999,-2.637304 -1.255991,-2.536319 -7.021161,-2.484985 -9.127055,0.08127 -0.09436,0.114983 -0.220918,0.209059 -0.28125,0.209059 -0.236699,0 -0.08116,-0.382245 0.5899,-1.449676 1.188519,-1.890544 1.261992,-2.152087 0.790551,-2.814164 -0.380801,-0.534786 -0.866858,-0.73616 -1.776869,-0.73616 -3.110262,0 -6.213276,3.401209 -6.213276,6.810361 0,1.101425 0.02684,1.076746 -1.5625,1.436693 -3.595716,0.814343 -6.915952,2.411359 -9.625,4.629573 -2.075795,1.699695 -4.788252,4.548044 -5.312688,5.57885 -0.0999,0.196362 -0.413456,0.666398 -0.696786,1.044523 -1.875584,2.503104 -4.182157,6.734379 -5.51597,10.118726 -0.711465,1.805235 -0.709935,2.434775 0.0075,3.092271 0.766753,0.702677 1.382931,0.580251 2.549177,-0.506485 0.774824,-0.722 0.528404,-0.125546 -0.715971,1.732988 -3.732826,5.575158 -4.425112,10.869588 -2.023797,15.477499 0.912431,1.750875 1.922777,2.518342 2.62565,1.994467 0.601285,-0.448159 0.833508,-0.99141 0.676019,-1.581443 -0.198099,-0.742181 -0.147704,-0.720076 1.019595,0.447223 3.820697,3.820697 8.134292,5.626207 11.928051,4.992636 4.342172,-0.725157 6.185559,-5.373293 3.286264,-8.286377 -0.930792,-0.935219 -1.497576,-1.160275 -4.952061,-1.966346 -3.449895,-0.805 -6.237482,-2.701942 -7.4617,-5.077659 -1.422136,-2.759794 -1.403641,-5.403931 0.03364,-4.808592 0.393648,0.163055 0.613606,0.700037 0.614868,1.50108 0.0056,3.548374 3.176824,6.175573 8.900146,7.373297 4.454903,0.932281 6.855563,4.576238 5.474158,8.309215 -0.549571,1.485111 -0.473676,1.616686 2.363645,4.097751 0.646113,0.564987 1.399823,1.241845 1.67491,1.504128 1.213337,1.156863 2.286991,1.45716 3.310188,0.92585 z m 1.275505,-20.6562 c -0.978219,-1.582791 -3.126767,-1.716673 -4.524261,-0.281919 -0.601929,0.617978 -0.613441,0.623201 -0.867265,0.393493 -0.358426,-0.324371 -0.811258,-1.152658 -0.903056,-1.651804 -0.04235,-0.230286 -0.217914,-0.586164 -0.390138,-0.790841 -0.638319,-0.758599 -0.177769,-1.601372 0.811865,-1.485654 0.103125,0.01206 0.423256,0.269946 0.711401,0.573084 0.664835,0.699427 0.740838,0.715419 3.158045,0.664515 l 2.013553,-0.0424 0.544947,-0.59375 c 0.564547,-0.615105 0.945349,-0.737254 1.452407,-0.465885 0.558186,0.298732 0.532846,0.9986 -0.05378,1.48546 -0.104454,0.08669 -0.275177,0.448217 -0.379385,0.803395 -0.420383,1.432821 -1.150322,2.078366 -1.574328,1.392309 z M 37.75,52.708917 c -2.906073,-0.675312 -4.58374,-4.144926 -3.262462,-6.747155 2.301198,-4.532157 8.968741,-2.779872 8.944688,2.350738 -0.01359,2.898778 -2.811455,5.063525 -5.682226,4.396417 z m 3.242292,-4.812325 C 42.513656,47.080675 41.848435,44.875 40.080994,44.875 c -0.718113,0 -1.455994,0.755875 -1.455994,1.491502 0,1.353755 1.222614,2.143987 2.367292,1.53009 z m 20.178213,4.802559 c -4.450917,-0.878332 -5.077262,-6.803056 -0.938826,-8.88054 2.789819,-1.400481 6.132485,0.395299 6.633329,3.563623 0.358685,2.269029 -1.417213,4.824228 -3.687112,5.305095 -0.999641,0.211769 -0.994323,0.211738 -2.007391,0.01182 z m 3.378596,-4.763671 c 1.105726,-0.524701 1.082748,-2.287678 -0.03737,-2.866911 -1.361704,-0.704165 -2.941245,0.880445 -2.144443,2.151324 0.509631,0.812848 1.377209,1.097395 2.181809,0.715587 z M 27.797642,34.889651 c 1.113631,-1.37468 3.110397,-3.354475 4.452358,-4.414519 1.945343,-1.536667 1.90129,-1.351402 0.714621,-3.005372 -1.612787,-2.24789 -1.274274,-5.249439 0.762603,-6.761879 1.714797,-1.273287 2.030101,-1.796192 1.561455,-2.589547 -1.006568,-1.703983 -6.522304,1.193983 -9.053422,4.756666 -1.563588,2.200834 -1.916568,3.395746 -1.920115,6.5 l -0.0026,2.3125 0.417701,1 c 1.410122,3.375916 1.856794,3.696587 3.067441,2.202151 z m 47.035364,0.454099 c 0.288436,-0.455854 0.740955,-1.382135 1.491624,-3.053271 0.986039,-2.195117 0.313515,-6.811164 -1.297734,-8.907339 -0.186668,-0.242848 -0.48553,-0.669992 -0.664137,-0.949209 -1.664856,-2.60266 -7.467267,-5.685192 -8.58936,-4.563099 -0.78301,0.78301 -0.514802,1.524499 0.906948,2.507354 2.57027,1.776827 3.048374,4.718147 1.179783,7.258089 -1.119092,1.521163 -1.20148,1.285592 1.07737,3.080484 1.185769,0.933949 3.394834,3.125947 4.001656,3.970741 0.985135,1.371468 1.359273,1.501113 1.89385,0.65625 z"
         id="path314" /></g></g></svg>
